<ttFont>
    <TTGlyph name=".notdef" xMin="50" yMin="-250" xMax="450" yMax="750">
      <contour>
        <pt x="50" y="-250" on="1"/>
        <pt x="450" y="-250" on="1"/>
        <pt x="450" y="750" on="1"/>
        <pt x="50" y="750" on="1"/>
      </contour>
      <contour>
        <pt x="100" y="-200" on="1"/>
        <pt x="100" y="700" on="1"/>
        <pt x="400" y="700" on="1"/>
        <pt x="400" y="-200" on="1"/>
      </contour>
    </TTGlyph>
    <TTGlyph name="Euro" xMin="71" yMin="-38" xMax="484" yMax="645">
      <contour>
        <pt x="71" y="231" on="1"/>
        <pt x="71" y="236" on="1"/>
        <pt x="155" y="236" on="1"/>
        <pt x="146" y="275" on="0"/>
        <pt x="146" y="313" on="1"/>
        <pt x="146" y="342" on="0"/>
        <pt x="151" y="370" on="1"/>
        <pt x="73" y="370" on="1"/>
        <pt x="73" y="375" on="1"/>
        <pt x="152" y="375" on="1"/>
        <pt x="165" y="447" on="0"/>
        <pt x="251" y="570" on="0"/>
        <pt x="391" y="645" on="0"/>
        <pt x="484" y="645" on="1"/>
        <pt x="484" y="640" on="1"/>
        <pt x="392" y="640" on="0"/>
        <pt x="254" y="567" on="0"/>
        <pt x="170" y="446" on="0"/>
        <pt x="157" y="375" on="1"/>
        <pt x="405" y="375" on="1"/>
        <pt x="405" y="370" on="1"/>
        <pt x="156" y="370" on="1"/>
        <pt x="151" y="342" on="0"/>
        <pt x="151" y="313" on="1"/>
        <pt x="151" y="275" on="0"/>
        <pt x="160" y="236" on="1"/>
        <pt x="403" y="236" on="1"/>
        <pt x="403" y="231" on="1"/>
        <pt x="161" y="231" on="1"/>
        <pt x="177" y="163" on="0"/>
        <pt x="261" y="42" on="0"/>
        <pt x="394" y="-33" on="0"/>
        <pt x="484" y="-33" on="1"/>
        <pt x="484" y="-38" on="1"/>
        <pt x="393" y="-38" on="0"/>
        <pt x="258" y="39" on="0"/>
        <pt x="172" y="162" on="0"/>
        <pt x="156" y="231" on="1"/>
      </contour>
    </TTGlyph>
    <TTGlyph name="arrowboth" xMin="48" yMin="93" xMax="620" yMax="481">
      <contour>
        <pt x="245" y="93" on="1"/>
        <pt x="48" y="287" on="1"/>
        <pt x="245" y="481" on="1"/>
        <pt x="249" y="477" on="1"/>
        <pt x="58" y="289" on="1"/>
        <pt x="610" y="289" on="1"/>
        <pt x="419" y="477" on="1"/>
        <pt x="423" y="481" on="1"/>
        <pt x="620" y="287" on="1"/>
        <pt x="423" y="93" on="1"/>
        <pt x="419" y="97" on="1"/>
        <pt x="609" y="284" on="1"/>
        <pt x="59" y="284" on="1"/>
        <pt x="249" y="97" on="1"/>
      </contour>
    </TTGlyph>
    <TTGlyph name="arrowdown" xMin="100" yMin="-19" xMax="528" yMax="556">
      <contour>
        <pt x="314" y="-19" on="1"/>
        <pt x="100" y="198" on="1"/>
        <pt x="104" y="202" on="1"/>
        <pt x="311" y="-8" on="1"/>
        <pt x="311" y="556" on="1"/>
        <pt x="316" y="556" on="1"/>
        <pt x="316" y="-9" on="1"/>
        <pt x="524" y="202" on="1"/>
        <pt x="528" y="198" on="1"/>
      </contour>
    </TTGlyph>
    <TTGlyph name="arrowleft" xMin="48" yMin="73" xMax="613" yMax="501">
      <contour>
        <pt x="265" y="73" on="1"/>
        <pt x="48" y="287" on="1"/>
        <pt x="265" y="501" on="1"/>
        <pt x="269" y="497" on="1"/>
        <pt x="58" y="289" on="1"/>
        <pt x="613" y="289" on="1"/>
        <pt x="613" y="284" on="1"/>
        <pt x="59" y="284" on="1"/>
        <pt x="269" y="77" on="1"/>
      </contour>
    </TTGlyph>
    <TTGlyph name="arrowright" xMin="48" yMin="73" xMax="613" yMax="501">
      <contour>
        <pt x="48" y="284" on="1"/>
        <pt x="48" y="289" on="1"/>
        <pt x="603" y="289" on="1"/>
        <pt x="392" y="497" on="1"/>
        <pt x="396" y="501" on="1"/>
        <pt x="613" y="287" on="1"/>
        <pt x="396" y="73" on="1"/>
        <pt x="392" y="77" on="1"/>
        <pt x="602" y="284" on="1"/>
      </contour>
    </TTGlyph>
    <TTGlyph name="arrowup" xMin="100" yMin="0" xMax="528" yMax="565">
      <contour>
        <pt x="312" y="0" on="1"/>
        <pt x="312" y="555" on="1"/>
        <pt x="104" y="344" on="1"/>
        <pt x="100" y="348" on="1"/>
        <pt x="314" y="565" on="1"/>
        <pt x="528" y="348" on="1"/>
        <pt x="524" y="344" on="1"/>
        <pt x="317" y="554" on="1"/>
        <pt x="317" y="0" on="1"/>
      </contour>
    </TTGlyph>
    <TTGlyph name="arrowupdn" xMin="120" yMin="-19" xMax="508" yMax="565">
      <contour>
        <pt x="314" y="-19" on="1"/>
        <pt x="120" y="178" on="1"/>
        <pt x="124" y="182" on="1"/>
        <pt x="312" y="-9" on="1"/>
        <pt x="312" y="555" on="1"/>
        <pt x="124" y="364" on="1"/>
        <pt x="120" y="368" on="1"/>
        <pt x="314" y="565" on="1"/>
        <pt x="508" y="368" on="1"/>
        <pt x="504" y="364" on="1"/>
        <pt x="317" y="554" on="1"/>
        <pt x="317" y="-8" on="1"/>
        <pt x="504" y="182" on="1"/>
        <pt x="508" y="178" on="1"/>
      </contour>
    </TTGlyph>
    <TTGlyph name="asciicircum" xMin="115" yMin="340" xMax="465" yMax="605">
      <contour>
        <pt x="115" y="340" on="1"/>
        <pt x="286" y="605" on="1"/>
        <pt x="290" y="605" on="1"/>
        <pt x="465" y="340" on="1"/>
        <pt x="460" y="340" on="1"/>
        <pt x="288" y="600" on="1"/>
        <pt x="120" y="340" on="1"/>
      </contour>
    </TTGlyph>
    <TTGlyph name="asterisk" xMin="70" yMin="318" xMax="377" yMax="671">
      <contour>
        <pt x="225" y="495" on="1"/>
        <pt x="225" y="318" on="1"/>
        <pt x="220" y="318" on="1"/>
        <pt x="220" y="496" on="1"/>
        <pt x="73" y="412" on="1"/>
        <pt x="71" y="416" on="1"/>
        <pt x="217" y="499" on="1"/>
        <pt x="70" y="584" on="1"/>
        <pt x="72" y="588" on="1"/>
        <pt x="220" y="503" on="1"/>
        <pt x="220" y="671" on="1"/>
        <pt x="225" y="671" on="1"/>
        <pt x="225" y="504" on="1"/>
        <pt x="373" y="588" on="1"/>
        <pt x="375" y="584" on="1"/>
        <pt x="226" y="499" on="1"/>
        <pt x="377" y="413" on="1"/>
        <pt x="375" y="409" on="1"/>
      </contour>
    </TTGlyph>
    <TTGlyph name="backslash" xMin="70" yMin="-184" xMax="347" yMax="730">
      <contour>
        <pt x="347" y="-184" on="1"/>
        <pt x="342" y="-184" on="1"/>
        <pt x="70" y="730" on="1"/>
        <pt x="74" y="730" on="1"/>
      </contour>
    </TTGlyph>
    <TTGlyph name="bar" xMin="72" yMin="-230" xMax="77" yMax="730">
      <contour>
        <pt x="77" y="-230" on="1"/>
        <pt x="72" y="-230" on="1"/>
        <pt x="72" y="730" on="1"/>
        <pt x="77" y="730" on="1"/>
      </contour>
    </TTGlyph>
    <TTGlyph name="braceleft" xMin="30" yMin="-233" xMax="322" yMax="733">
      <contour>
        <pt x="311" y="-233" on="1"/>
        <pt x="211" y="-233" on="0"/>
        <pt x="129" y="-132" on="0"/>
        <pt x="129" y="-13" on="1"/>
        <pt x="129" y="107" on="1"/>
        <pt x="129" y="168" on="0"/>
        <pt x="115" y="227" on="0"/>
        <pt x="73" y="246" on="0"/>
        <pt x="30" y="246" on="1"/>
        <pt x="30" y="251" on="1"/>
        <pt x="73" y="251" on="0"/>
        <pt x="115" y="269" on="0"/>
        <pt x="129" y="324" on="0"/>
        <pt x="129" y="380" on="1"/>
        <pt x="129" y="513" on="1"/>
        <pt x="129" y="632" on="0"/>
        <pt x="211" y="733" on="0"/>
        <pt x="311" y="733" on="1"/>
        <pt x="322" y="733" on="1"/>
        <pt x="322" y="728" on="1"/>
        <pt x="252" y="728" on="0"/>
        <pt x="170" y="688" on="0"/>
        <pt x="134" y="595" on="0"/>
        <pt x="134" y="513" on="1"/>
        <pt x="134" y="380" on="1"/>
        <pt x="134" y="313" on="0"/>
        <pt x="113" y="255" on="0"/>
        <pt x="72" y="248" on="1"/>
        <pt x="113" y="241" on="0"/>
        <pt x="134" y="179" on="0"/>
        <pt x="134" y="107" on="1"/>
        <pt x="134" y="-13" on="1"/>
        <pt x="134" y="-95" on="0"/>
        <pt x="171" y="-189" on="0"/>
        <pt x="253" y="-228" on="0"/>
        <pt x="322" y="-228" on="1"/>
        <pt x="322" y="-233" on="1"/>
      </contour>
    </TTGlyph>
    <TTGlyph name="braceright" xMin="70" yMin="-233" xMax="362" yMax="733">
      <contour>
        <pt x="70" y="-233" on="1"/>
        <pt x="70" y="-228" on="1"/>
        <pt x="139" y="-228" on="0"/>
        <pt x="222" y="-189" on="0"/>
        <pt x="258" y="-95" on="0"/>
        <pt x="258" y="-13" on="1"/>
        <pt x="258" y="107" on="1"/>
        <pt x="258" y="179" on="0"/>
        <pt x="280" y="241" on="0"/>
        <pt x="320" y="248" on="1"/>
        <pt x="280" y="255" on="0"/>
        <pt x="258" y="313" on="0"/>
        <pt x="258" y="380" on="1"/>
        <pt x="258" y="513" on="1"/>
        <pt x="258" y="595" on="0"/>
        <pt x="222" y="688" on="0"/>
        <pt x="140" y="728" on="0"/>
        <pt x="70" y="728" on="1"/>
        <pt x="70" y="733" on="1"/>
        <pt x="81" y="733" on="1"/>
        <pt x="181" y="733" on="0"/>
        <pt x="263" y="632" on="0"/>
        <pt x="263" y="513" on="1"/>
        <pt x="263" y="380" on="1"/>
        <pt x="263" y="324" on="0"/>
        <pt x="277" y="269" on="0"/>
        <pt x="319" y="251" on="0"/>
        <pt x="362" y="251" on="1"/>
        <pt x="362" y="246" on="1"/>
        <pt x="319" y="246" on="0"/>
        <pt x="277" y="227" on="0"/>
        <pt x="263" y="168" on="0"/>
        <pt x="263" y="107" on="1"/>
        <pt x="263" y="-13" on="1"/>
        <pt x="263" y="-132" on="0"/>
        <pt x="181" y="-233" on="0"/>
        <pt x="81" y="-233" on="1"/>
      </contour>
    </TTGlyph>
    <TTGlyph name="bracketleft" xMin="70" yMin="-233" xMax="185" yMax="733">
      <contour>
        <pt x="70" y="-233" on="1"/>
        <pt x="70" y="733" on="1"/>
        <pt x="185" y="733" on="1"/>
        <pt x="185" y="728" on="1"/>
        <pt x="75" y="728" on="1"/>
        <pt x="75" y="-228" on="1"/>
        <pt x="185" y="-228" on="1"/>
        <pt x="185" y="-233" on="1"/>
      </contour>
    </TTGlyph>
    <TTGlyph name="bracketright" xMin="70" yMin="-233" xMax="185" yMax="733">
      <contour>
        <pt x="70" y="-233" on="1"/>
        <pt x="70" y="-228" on="1"/>
        <pt x="180" y="-228" on="1"/>
        <pt x="180" y="728" on="1"/>
        <pt x="70" y="728" on="1"/>
        <pt x="70" y="733" on="1"/>
        <pt x="185" y="733" on="1"/>
        <pt x="185" y="-233" on="1"/>
      </contour>
    </TTGlyph>
    <TTGlyph name="bullet" xMin="50" yMin="241" xMax="138" yMax="329">
      <contour>
        <pt x="94" y="241" on="1"/>
        <pt x="76" y="241" on="0"/>
        <pt x="50" y="264" on="0"/>
        <pt x="50" y="285" on="1"/>
        <pt x="50" y="303" on="0"/>
        <pt x="73" y="329" on="0"/>
        <pt x="94" y="329" on="1"/>
        <pt x="115" y="329" on="0"/>
        <pt x="138" y="303" on="0"/>
        <pt x="138" y="285" on="1"/>
        <pt x="138" y="264" on="0"/>
        <pt x="112" y="241" on="0"/>
      </contour>
    </TTGlyph>
    <TTGlyph name="colon" xMin="70" yMin="-4" xMax="92" yMax="448">
      <contour>
        <pt x="81" y="426" on="1"/>
        <pt x="70" y="426" on="0"/>
        <pt x="70" y="437" on="1"/>
        <pt x="70" y="448" on="0"/>
        <pt x="81" y="448" on="1"/>
        <pt x="92" y="448" on="0"/>
        <pt x="92" y="437" on="1"/>
        <pt x="92" y="426" on="0"/>
      </contour>
      <contour>
        <pt x="81" y="-4" on="1"/>
        <pt x="70" y="-4" on="0"/>
        <pt x="70" y="7" on="1"/>
        <pt x="70" y="18" on="0"/>
        <pt x="81" y="18" on="1"/>
        <pt x="92" y="18" on="0"/>
        <pt x="92" y="7" on="1"/>
        <pt x="92" y="-4" on="0"/>
      </contour>
    </TTGlyph>
    <TTGlyph name="comma" xMin="37" yMin="-118" xMax="94" yMax="88">
      <contour>
        <pt x="37" y="-118" on="1"/>
        <pt x="90" y="88" on="1"/>
        <pt x="94" y="88" on="1"/>
        <pt x="42" y="-118" on="1"/>
      </contour>
    </TTGlyph>
    <TTGlyph name="copyright" xMin="76" yMin="-63" xMax="781" yMax="633">
      <contour>
        <pt x="423" y="-63" on="1"/>
        <pt x="353" y="-63" on="0"/>
        <pt x="227" y="-8" on="0"/>
        <pt x="131" y="88" on="0"/>
        <pt x="76" y="214" on="0"/>
        <pt x="76" y="285" on="1"/>
        <pt x="76" y="356" on="0"/>
        <pt x="131" y="482" on="0"/>
        <pt x="227" y="578" on="0"/>
        <pt x="353" y="633" on="0"/>
        <pt x="423" y="633" on="1"/>
        <pt x="496" y="633" on="0"/>
        <pt x="625" y="578" on="0"/>
        <pt x="724" y="482" on="0"/>
        <pt x="781" y="356" on="0"/>
        <pt x="781" y="285" on="1"/>
        <pt x="781" y="214" on="0"/>
        <pt x="724" y="88" on="0"/>
        <pt x="625" y="-8" on="0"/>
        <pt x="496" y="-63" on="0"/>
      </contour>
      <contour>
        <pt x="423" y="-58" on="1"/>
        <pt x="495" y="-58" on="0"/>
        <pt x="623" y="-4" on="0"/>
        <pt x="720" y="91" on="0"/>
        <pt x="776" y="215" on="0"/>
        <pt x="776" y="285" on="1"/>
        <pt x="776" y="355" on="0"/>
        <pt x="720" y="479" on="0"/>
        <pt x="623" y="574" on="0"/>
        <pt x="495" y="628" on="0"/>
        <pt x="423" y="628" on="1"/>
        <pt x="353" y="628" on="0"/>
        <pt x="230" y="574" on="0"/>
        <pt x="135" y="479" on="0"/>
        <pt x="81" y="355" on="0"/>
        <pt x="81" y="285" on="1"/>
        <pt x="81" y="215" on="0"/>
        <pt x="135" y="91" on="0"/>
        <pt x="230" y="-4" on="0"/>
        <pt x="353" y="-58" on="0"/>
      </contour>
      <contour>
        <pt x="427" y="84" on="1"/>
        <pt x="370" y="84" on="0"/>
        <pt x="278" y="137" on="0"/>
        <pt x="225" y="228" on="0"/>
        <pt x="225" y="285" on="1"/>
        <pt x="225" y="341" on="0"/>
        <pt x="279" y="433" on="0"/>
        <pt x="371" y="487" on="0"/>
        <pt x="427" y="487" on="1"/>
        <pt x="483" y="487" on="0"/>
        <pt x="578" y="432" on="0"/>
        <pt x="603" y="385" on="1"/>
        <pt x="599" y="383" on="1"/>
        <pt x="574" y="428" on="0"/>
        <pt x="481" y="482" on="0"/>
        <pt x="427" y="482" on="1"/>
        <pt x="372" y="482" on="0"/>
        <pt x="282" y="430" on="0"/>
        <pt x="230" y="341" on="0"/>
        <pt x="230" y="285" on="1"/>
        <pt x="230" y="230" on="0"/>
        <pt x="282" y="141" on="0"/>
        <pt x="372" y="89" on="0"/>
        <pt x="427" y="89" on="1"/>
        <pt x="483" y="89" on="0"/>
        <pt x="577" y="146" on="0"/>
        <pt x="602" y="194" on="1"/>
        <pt x="606" y="192" on="1"/>
        <pt x="581" y="143" on="0"/>
        <pt x="484" y="84" on="0"/>
      </contour>
    </TTGlyph>
    <TTGlyph name="degree" xMin="72" yMin="448" xMax="300" yMax="676">
      <contour>
        <pt x="186" y="448" on="1"/>
        <pt x="138" y="448" on="0"/>
        <pt x="72" y="515" on="0"/>
        <pt x="72" y="562" on="1"/>
        <pt x="72" y="594" on="0"/>
        <pt x="103" y="645" on="0"/>
        <pt x="155" y="676" on="0"/>
        <pt x="186" y="676" on="1"/>
        <pt x="234" y="676" on="0"/>
        <pt x="300" y="609" on="0"/>
        <pt x="300" y="562" on="1"/>
        <pt x="300" y="531" on="0"/>
        <pt x="269" y="479" on="0"/>
        <pt x="218" y="448" on="0"/>
      </contour>
      <contour>
        <pt x="186" y="453" on="1"/>
        <pt x="232" y="453" on="0"/>
        <pt x="295" y="516" on="0"/>
        <pt x="295" y="562" on="1"/>
        <pt x="295" y="607" on="0"/>
        <pt x="232" y="671" on="0"/>
        <pt x="186" y="671" on="1"/>
        <pt x="140" y="671" on="0"/>
        <pt x="77" y="608" on="0"/>
        <pt x="77" y="562" on="1"/>
        <pt x="77" y="517" on="0"/>
        <pt x="140" y="453" on="0"/>
      </contour>
    </TTGlyph>
    <TTGlyph name="divide" xMin="82" yMin="126" xMax="442" yMax="458">
      <contour>
        <pt x="262" y="436" on="1"/>
        <pt x="251" y="436" on="0"/>
        <pt x="251" y="447" on="1"/>
        <pt x="251" y="458" on="0"/>
        <pt x="262" y="458" on="1"/>
        <pt x="273" y="458" on="0"/>
        <pt x="273" y="447" on="1"/>
        <pt x="273" y="436" on="0"/>
      </contour>
      <contour>
        <pt x="82" y="284" on="1"/>
        <pt x="82" y="289" on="1"/>
        <pt x="442" y="289" on="1"/>
        <pt x="442" y="284" on="1"/>
      </contour>
      <contour>
        <pt x="262" y="126" on="1"/>
        <pt x="251" y="126" on="0"/>
        <pt x="251" y="137" on="1"/>
        <pt x="251" y="148" on="0"/>
        <pt x="262" y="148" on="1"/>
        <pt x="273" y="148" on="0"/>
        <pt x="273" y="137" on="1"/>
        <pt x="273" y="126" on="0"/>
      </contour>
    </TTGlyph>
    <TTGlyph name="dollar" xMin="85" yMin="-102" xMax="516" yMax="730">
      <contour>
        <pt x="324" y="-11" on="1"/>
        <pt x="319" y="-11" on="0"/>
        <pt x="315" y="-11" on="1"/>
        <pt x="315" y="-102" on="1"/>
        <pt x="310" y="-102" on="1"/>
        <pt x="310" y="-11" on="1"/>
        <pt x="237" y="-9" on="0"/>
        <pt x="134" y="28" on="0"/>
        <pt x="85" y="71" on="1"/>
        <pt x="89" y="75" on="1"/>
        <pt x="136" y="33" on="0"/>
        <pt x="237" y="-4" on="0"/>
        <pt x="310" y="-6" on="1"/>
        <pt x="310" y="324" on="1"/>
        <pt x="306" y="325" on="0"/>
        <pt x="298" y="327" on="1"/>
        <pt x="249" y="342" on="0"/>
        <pt x="158" y="376" on="0"/>
        <pt x="101" y="432" on="0"/>
        <pt x="101" y="480" on="1"/>
        <pt x="101" y="521" on="0"/>
        <pt x="148" y="596" on="0"/>
        <pt x="238" y="645" on="0"/>
        <pt x="301" y="645" on="1"/>
        <pt x="306" y="645" on="0"/>
        <pt x="310" y="645" on="1"/>
        <pt x="310" y="730" on="1"/>
        <pt x="315" y="730" on="1"/>
        <pt x="315" y="645" on="1"/>
        <pt x="369" y="643" on="0"/>
        <pt x="461" y="607" on="0"/>
        <pt x="504" y="572" on="1"/>
        <pt x="500" y="568" on="1"/>
        <pt x="458" y="603" on="0"/>
        <pt x="369" y="638" on="0"/>
        <pt x="315" y="640" on="1"/>
        <pt x="315" y="327" on="1"/>
        <pt x="365" y="313" on="0"/>
        <pt x="457" y="275" on="0"/>
        <pt x="515" y="210" on="0"/>
        <pt x="515" y="155" on="1"/>
        <pt x="516" y="107" on="0"/>
        <pt x="467" y="32" on="0"/>
        <pt x="381" y="-11" on="0"/>
      </contour>
      <contour>
        <pt x="299" y="332" on="1"/>
        <pt x="306" y="330" on="0"/>
        <pt x="310" y="329" on="1"/>
        <pt x="310" y="640" on="1"/>
        <pt x="306" y="640" on="0"/>
        <pt x="301" y="640" on="1"/>
        <pt x="238" y="640" on="0"/>
        <pt x="151" y="593" on="0"/>
        <pt x="106" y="520" on="0"/>
        <pt x="105" y="480" on="1"/>
        <pt x="105" y="434" on="0"/>
        <pt x="161" y="380" on="0"/>
        <pt x="249" y="347" on="0"/>
      </contour>
      <contour>
        <pt x="511" y="155" on="1"/>
        <pt x="511" y="208" on="0"/>
        <pt x="455" y="270" on="0"/>
        <pt x="365" y="308" on="0"/>
        <pt x="315" y="322" on="1"/>
        <pt x="315" y="-6" on="1"/>
        <pt x="319" y="-6" on="0"/>
        <pt x="324" y="-6" on="1"/>
        <pt x="379" y="-6" on="0"/>
        <pt x="463" y="35" on="0"/>
        <pt x="511" y="108" on="0"/>
      </contour>
    </TTGlyph>
    <TTGlyph name="eight" xMin="65" yMin="-3" xMax="430" yMax="603">
      <contour>
        <pt x="247" y="-3" on="1"/>
        <pt x="195" y="-3" on="0"/>
        <pt x="112" y="39" on="0"/>
        <pt x="65" y="115" on="0"/>
        <pt x="65" y="167" on="1"/>
        <pt x="65" y="235" on="0"/>
        <pt x="152" y="327" on="0"/>
        <pt x="216" y="337" on="1"/>
        <pt x="182" y="343" on="0"/>
        <pt x="129" y="384" on="0"/>
        <pt x="99" y="440" on="0"/>
        <pt x="99" y="468" on="1"/>
        <pt x="99" y="501" on="0"/>
        <pt x="138" y="563" on="0"/>
        <pt x="205" y="603" on="0"/>
        <pt x="247" y="603" on="1"/>
        <pt x="289" y="603" on="0"/>
        <pt x="356" y="563" on="0"/>
        <pt x="396" y="501" on="0"/>
        <pt x="396" y="468" on="1"/>
        <pt x="396" y="440" on="0"/>
        <pt x="365" y="384" on="0"/>
        <pt x="312" y="343" on="0"/>
        <pt x="278" y="337" on="1"/>
        <pt x="343" y="327" on="0"/>
        <pt x="430" y="235" on="0"/>
        <pt x="430" y="167" on="1"/>
        <pt x="430" y="115" on="0"/>
        <pt x="382" y="39" on="0"/>
        <pt x="300" y="-3" on="0"/>
      </contour>
      <contour>
        <pt x="247" y="339" on="1"/>
        <pt x="288" y="339" on="0"/>
        <pt x="353" y="377" on="0"/>
        <pt x="391" y="436" on="0"/>
        <pt x="391" y="468" on="1"/>
        <pt x="391" y="500" on="0"/>
        <pt x="353" y="560" on="0"/>
        <pt x="288" y="598" on="0"/>
        <pt x="247" y="598" on="1"/>
        <pt x="207" y="598" on="0"/>
        <pt x="142" y="560" on="0"/>
        <pt x="104" y="500" on="0"/>
        <pt x="104" y="468" on="1"/>
        <pt x="104" y="437" on="0"/>
        <pt x="141" y="377" on="0"/>
        <pt x="206" y="339" on="0"/>
      </contour>
      <contour>
        <pt x="247" y="3" on="1"/>
        <pt x="298" y="3" on="0"/>
        <pt x="379" y="43" on="0"/>
        <pt x="425" y="117" on="0"/>
        <pt x="425" y="167" on="1"/>
        <pt x="425" y="216" on="0"/>
        <pt x="377" y="291" on="0"/>
        <pt x="296" y="334" on="0"/>
        <pt x="247" y="334" on="1"/>
        <pt x="198" y="334" on="0"/>
        <pt x="118" y="291" on="0"/>
        <pt x="70" y="216" on="0"/>
        <pt x="70" y="167" on="1"/>
        <pt x="70" y="117" on="0"/>
        <pt x="116" y="43" on="0"/>
        <pt x="196" y="3" on="0"/>
      </contour>
    </TTGlyph>
    <TTGlyph name="emdash" xMin="52" yMin="253" xMax="630" yMax="258">
      <contour>
        <pt x="52" y="253" on="1"/>
        <pt x="52" y="258" on="1"/>
        <pt x="630" y="258" on="1"/>
        <pt x="630" y="253" on="1"/>
      </contour>
    </TTGlyph>
    <TTGlyph name="endash" xMin="52" yMin="253" xMax="472" yMax="258">
      <contour>
        <pt x="52" y="253" on="1"/>
        <pt x="52" y="258" on="1"/>
        <pt x="472" y="258" on="1"/>
        <pt x="472" y="253" on="1"/>
      </contour>
    </TTGlyph>
    <TTGlyph name="equal" xMin="82" yMin="191" xMax="442" yMax="382">
      <contour>
        <pt x="82" y="377" on="1"/>
        <pt x="82" y="382" on="1"/>
        <pt x="442" y="382" on="1"/>
        <pt x="442" y="377" on="1"/>
      </contour>
      <contour>
        <pt x="82" y="191" on="1"/>
        <pt x="82" y="196" on="1"/>
        <pt x="442" y="196" on="1"/>
        <pt x="442" y="191" on="1"/>
      </contour>
    </TTGlyph>
    <TTGlyph name="exclam" xMin="70" yMin="-4" xMax="92" yMax="599">
      <contour>
        <pt x="79" y="108" on="1"/>
        <pt x="79" y="176" on="0"/>
        <pt x="79" y="315" on="0"/>
        <pt x="78" y="439" on="0"/>
        <pt x="78" y="482" on="1"/>
        <pt x="78" y="599" on="1"/>
        <pt x="83" y="599" on="1"/>
        <pt x="83" y="482" on="1"/>
        <pt x="83" y="439" on="0"/>
        <pt x="84" y="315" on="0"/>
        <pt x="84" y="176" on="0"/>
        <pt x="84" y="108" on="1"/>
      </contour>
      <contour>
        <pt x="81" y="-4" on="1"/>
        <pt x="70" y="-4" on="0"/>
        <pt x="70" y="7" on="1"/>
        <pt x="70" y="18" on="0"/>
        <pt x="81" y="18" on="1"/>
        <pt x="92" y="18" on="0"/>
        <pt x="92" y="7" on="1"/>
        <pt x="92" y="-4" on="0"/>
      </contour>
    </TTGlyph>
    <TTGlyph name="five" xMin="80" yMin="-15" xMax="452" yMax="602">
      <contour>
        <pt x="251" y="-15" on="1"/>
        <pt x="200" y="-15" on="0"/>
        <pt x="107" y="12" on="0"/>
        <pt x="80" y="30" on="1"/>
        <pt x="82" y="34" on="1"/>
        <pt x="107" y="17" on="0"/>
        <pt x="199" y="-10" on="0"/>
        <pt x="251" y="-10" on="1"/>
        <pt x="308" y="-10" on="0"/>
        <pt x="396" y="35" on="0"/>
        <pt x="447" y="119" on="0"/>
        <pt x="447" y="175" on="1"/>
        <pt x="447" y="234" on="0"/>
        <pt x="394" y="318" on="0"/>
        <pt x="307" y="362" on="0"/>
        <pt x="255" y="362" on="1"/>
        <pt x="212" y="362" on="0"/>
        <pt x="138" y="350" on="0"/>
        <pt x="94" y="339" on="1"/>
        <pt x="102" y="602" on="1"/>
        <pt x="429" y="602" on="1"/>
        <pt x="429" y="597" on="1"/>
        <pt x="107" y="597" on="1"/>
        <pt x="100" y="345" on="1"/>
        <pt x="122" y="351" on="0"/>
        <pt x="178" y="361" on="0"/>
        <pt x="235" y="367" on="0"/>
        <pt x="255" y="367" on="1"/>
        <pt x="309" y="367" on="0"/>
        <pt x="398" y="321" on="0"/>
        <pt x="452" y="236" on="0"/>
        <pt x="452" y="175" on="1"/>
        <pt x="452" y="117" on="0"/>
        <pt x="400" y="32" on="0"/>
        <pt x="309" y="-15" on="0"/>
      </contour>
    </TTGlyph>
    <TTGlyph name="four" xMin="30" yMin="0" xMax="459" yMax="602">
      <contour>
        <pt x="360" y="0" on="1"/>
        <pt x="360" y="178" on="1"/>
        <pt x="30" y="177" on="1"/>
        <pt x="30" y="183" on="1"/>
        <pt x="357" y="602" on="1"/>
        <pt x="365" y="602" on="1"/>
        <pt x="365" y="183" on="1"/>
        <pt x="459" y="183" on="1"/>
        <pt x="459" y="178" on="1"/>
        <pt x="365" y="178" on="1"/>
        <pt x="365" y="0" on="1"/>
      </contour>
      <contour>
        <pt x="37" y="183" on="1"/>
        <pt x="360" y="183" on="1"/>
        <pt x="360" y="597" on="1"/>
      </contour>
    </TTGlyph>
    <TTGlyph name="greater" xMin="91" yMin="76" xMax="509" yMax="491">
      <contour>
        <pt x="93" y="76" on="1"/>
        <pt x="91" y="80" on="1"/>
        <pt x="506" y="286" on="1"/>
        <pt x="91" y="487" on="1"/>
        <pt x="93" y="491" on="1"/>
        <pt x="509" y="291" on="1"/>
        <pt x="509" y="281" on="1"/>
      </contour>
    </TTGlyph>
    <TTGlyph name="hyphen" xMin="72" yMin="253" xMax="442" yMax="258">
      <contour>
        <pt x="72" y="258" on="1"/>
        <pt x="442" y="258" on="1"/>
        <pt x="442" y="253" on="1"/>
        <pt x="72" y="253" on="1"/>
      </contour>
    </TTGlyph>
    <TTGlyph name="less" xMin="91" yMin="76" xMax="509" yMax="491">
      <contour>
        <pt x="507" y="76" on="1"/>
        <pt x="91" y="281" on="1"/>
        <pt x="91" y="291" on="1"/>
        <pt x="507" y="491" on="1"/>
        <pt x="509" y="487" on="1"/>
        <pt x="94" y="286" on="1"/>
        <pt x="509" y="80" on="1"/>
      </contour>
    </TTGlyph>
    <TTGlyph name="minus" xMin="82" yMin="284" xMax="442" yMax="289">
      <contour>
        <pt x="82" y="284" on="1"/>
        <pt x="82" y="289" on="1"/>
        <pt x="442" y="289" on="1"/>
        <pt x="442" y="284" on="1"/>
      </contour>
    </TTGlyph>
    <TTGlyph name="multiply" xMin="73" yMin="148" xMax="369" yMax="442">
      <contour>
        <pt x="77" y="148" on="1"/>
        <pt x="73" y="152" on="1"/>
        <pt x="217" y="295" on="1"/>
        <pt x="73" y="438" on="1"/>
        <pt x="77" y="442" on="1"/>
        <pt x="221" y="299" on="1"/>
        <pt x="365" y="442" on="1"/>
        <pt x="369" y="438" on="1"/>
        <pt x="225" y="295" on="1"/>
        <pt x="369" y="152" on="1"/>
        <pt x="365" y="148" on="1"/>
        <pt x="221" y="291" on="1"/>
      </contour>
    </TTGlyph>
    <TTGlyph name="nine" xMin="78" yMin="-4" xMax="440" yMax="608">
      <contour>
        <pt x="193" y="-4" on="1"/>
        <pt x="190" y="0" on="1"/>
        <pt x="295" y="63" on="0"/>
        <pt x="424" y="256" on="0"/>
        <pt x="433" y="379" on="1"/>
        <pt x="422" y="343" on="0"/>
        <pt x="366" y="287" on="0"/>
        <pt x="295" y="255" on="0"/>
        <pt x="259" y="255" on="1"/>
        <pt x="208" y="255" on="0"/>
        <pt x="126" y="301" on="0"/>
        <pt x="78" y="380" on="0"/>
        <pt x="78" y="429" on="1"/>
        <pt x="78" y="478" on="0"/>
        <pt x="121" y="559" on="0"/>
        <pt x="202" y="608" on="0"/>
        <pt x="259" y="608" on="1"/>
        <pt x="309" y="608" on="0"/>
        <pt x="391" y="557" on="0"/>
        <pt x="440" y="471" on="0"/>
        <pt x="440" y="420" on="1"/>
        <pt x="440" y="290" on="0"/>
        <pt x="317" y="70" on="0"/>
      </contour>
      <contour>
        <pt x="259" y="260" on="1"/>
        <pt x="299" y="260" on="0"/>
        <pt x="380" y="302" on="0"/>
        <pt x="435" y="375" on="0"/>
        <pt x="435" y="420" on="1"/>
        <pt x="435" y="470" on="0"/>
        <pt x="387" y="553" on="0"/>
        <pt x="307" y="603" on="0"/>
        <pt x="259" y="603" on="1"/>
        <pt x="203" y="603" on="0"/>
        <pt x="124" y="556" on="0"/>
        <pt x="83" y="477" on="0"/>
        <pt x="83" y="429" on="1"/>
        <pt x="83" y="382" on="0"/>
        <pt x="129" y="305" on="0"/>
        <pt x="209" y="260" on="0"/>
      </contour>
    </TTGlyph>
    <TTGlyph name="notequal" xMin="82" yMin="83" xMax="442" yMax="490">
      <contour>
        <pt x="159" y="83" on="1"/>
        <pt x="212" y="191" on="1"/>
        <pt x="82" y="191" on="1"/>
        <pt x="82" y="196" on="1"/>
        <pt x="214" y="196" on="1"/>
        <pt x="302" y="377" on="1"/>
        <pt x="82" y="377" on="1"/>
        <pt x="82" y="382" on="1"/>
        <pt x="304" y="382" on="1"/>
        <pt x="357" y="490" on="1"/>
        <pt x="363" y="490" on="1"/>
        <pt x="310" y="382" on="1"/>
        <pt x="442" y="382" on="1"/>
        <pt x="442" y="377" on="1"/>
        <pt x="308" y="377" on="1"/>
        <pt x="220" y="196" on="1"/>
        <pt x="442" y="196" on="1"/>
        <pt x="442" y="191" on="1"/>
        <pt x="218" y="191" on="1"/>
        <pt x="165" y="83" on="1"/>
      </contour>
    </TTGlyph>
    <TTGlyph name="numbersign" xMin="62" yMin="-61" xMax="677" yMax="640">
      <contour>
        <pt x="62" y="165" on="1"/>
        <pt x="62" y="170" on="1"/>
        <pt x="231" y="170" on="1"/>
        <pt x="265" y="410" on="1"/>
        <pt x="62" y="410" on="1"/>
        <pt x="62" y="415" on="1"/>
        <pt x="266" y="415" on="1"/>
        <pt x="298" y="640" on="1"/>
        <pt x="302" y="640" on="1"/>
        <pt x="270" y="415" on="1"/>
        <pt x="512" y="415" on="1"/>
        <pt x="544" y="640" on="1"/>
        <pt x="548" y="640" on="1"/>
        <pt x="516" y="415" on="1"/>
        <pt x="677" y="415" on="1"/>
        <pt x="677" y="410" on="1"/>
        <pt x="515" y="410" on="1"/>
        <pt x="480" y="170" on="1"/>
        <pt x="677" y="170" on="1"/>
        <pt x="677" y="165" on="1"/>
        <pt x="480" y="165" on="1"/>
        <pt x="447" y="-61" on="1"/>
        <pt x="443" y="-61" on="1"/>
        <pt x="476" y="165" on="1"/>
        <pt x="234" y="165" on="1"/>
        <pt x="202" y="-61" on="1"/>
        <pt x="198" y="-61" on="1"/>
        <pt x="230" y="165" on="1"/>
      </contour>
      <contour>
        <pt x="235" y="170" on="1"/>
        <pt x="476" y="170" on="1"/>
        <pt x="511" y="410" on="1"/>
        <pt x="269" y="410" on="1"/>
      </contour>
    </TTGlyph>
    <TTGlyph name="one" xMin="69" yMin="0" xMax="255" yMax="607">
      <contour>
        <pt x="250" y="0" on="1"/>
        <pt x="250" y="599" on="1"/>
        <pt x="69" y="500" on="1"/>
        <pt x="69" y="505" on="1"/>
        <pt x="255" y="607" on="1"/>
        <pt x="255" y="0" on="1"/>
      </contour>
    </TTGlyph>
    <TTGlyph name="parenleft" xMin="50" yMin="-226" xMax="263" yMax="725">
      <contour>
        <pt x="256" y="-226" on="1"/>
        <pt x="207" y="-185" on="0"/>
        <pt x="112" y="-54" on="0"/>
        <pt x="50" y="130" on="0"/>
        <pt x="50" y="249" on="1"/>
        <pt x="50" y="369" on="0"/>
        <pt x="112" y="551" on="0"/>
        <pt x="206" y="682" on="0"/>
        <pt x="254" y="725" on="1"/>
        <pt x="261" y="725" on="1"/>
        <pt x="212" y="680" on="0"/>
        <pt x="117" y="549" on="0"/>
        <pt x="55" y="368" on="0"/>
        <pt x="55" y="249" on="1"/>
        <pt x="55" y="131" on="0"/>
        <pt x="117" y="-51" on="0"/>
        <pt x="212" y="-183" on="0"/>
        <pt x="263" y="-226" on="1"/>
      </contour>
    </TTGlyph>
    <TTGlyph name="parenright" xMin="50" yMin="-226" xMax="263" yMax="725">
      <contour>
        <pt x="57" y="-226" on="1"/>
        <pt x="50" y="-226" on="1"/>
        <pt x="101" y="-183" on="0"/>
        <pt x="196" y="-51" on="0"/>
        <pt x="258" y="131" on="0"/>
        <pt x="258" y="249" on="1"/>
        <pt x="258" y="368" on="0"/>
        <pt x="196" y="549" on="0"/>
        <pt x="102" y="680" on="0"/>
        <pt x="52" y="725" on="1"/>
        <pt x="59" y="725" on="1"/>
        <pt x="107" y="682" on="0"/>
        <pt x="201" y="551" on="0"/>
        <pt x="263" y="369" on="0"/>
        <pt x="263" y="249" on="1"/>
        <pt x="263" y="130" on="0"/>
        <pt x="201" y="-54" on="0"/>
        <pt x="107" y="-185" on="0"/>
      </contour>
    </TTGlyph>
    <TTGlyph name="percent" xMin="33" yMin="-24" xMax="814" yMax="619">
      <contour>
        <pt x="151" y="-24" on="1"/>
        <pt x="147" y="-20" on="1"/>
        <pt x="697" y="619" on="1"/>
        <pt x="701" y="615" on="1"/>
      </contour>
      <contour>
        <pt x="205" y="265" on="1"/>
        <pt x="158" y="265" on="0"/>
        <pt x="79" y="311" on="0"/>
        <pt x="33" y="389" on="0"/>
        <pt x="33" y="437" on="1"/>
        <pt x="33" y="485" on="0"/>
        <pt x="79" y="563" on="0"/>
        <pt x="158" y="609" on="0"/>
        <pt x="205" y="609" on="1"/>
        <pt x="253" y="609" on="0"/>
        <pt x="331" y="563" on="0"/>
        <pt x="377" y="485" on="0"/>
        <pt x="377" y="437" on="1"/>
        <pt x="377" y="390" on="0"/>
        <pt x="330" y="311" on="0"/>
        <pt x="252" y="265" on="0"/>
      </contour>
      <contour>
        <pt x="205" y="270" on="1"/>
        <pt x="251" y="270" on="0"/>
        <pt x="327" y="315" on="0"/>
        <pt x="372" y="391" on="0"/>
        <pt x="372" y="437" on="1"/>
        <pt x="372" y="483" on="0"/>
        <pt x="327" y="559" on="0"/>
        <pt x="251" y="604" on="0"/>
        <pt x="205" y="604" on="1"/>
        <pt x="159" y="604" on="0"/>
        <pt x="83" y="559" on="0"/>
        <pt x="38" y="484" on="0"/>
        <pt x="38" y="437" on="1"/>
        <pt x="38" y="391" on="0"/>
        <pt x="83" y="315" on="0"/>
        <pt x="159" y="270" on="0"/>
      </contour>
      <contour>
        <pt x="642" y="-19" on="1"/>
        <pt x="595" y="-19" on="0"/>
        <pt x="516" y="27" on="0"/>
        <pt x="470" y="106" on="0"/>
        <pt x="470" y="154" on="1"/>
        <pt x="470" y="202" on="0"/>
        <pt x="516" y="280" on="0"/>
        <pt x="595" y="326" on="0"/>
        <pt x="642" y="326" on="1"/>
        <pt x="690" y="326" on="0"/>
        <pt x="768" y="280" on="0"/>
        <pt x="814" y="202" on="0"/>
        <pt x="814" y="154" on="1"/>
        <pt x="814" y="107" on="0"/>
        <pt x="767" y="28" on="0"/>
        <pt x="689" y="-19" on="0"/>
      </contour>
      <contour>
        <pt x="642" y="-14" on="1"/>
        <pt x="688" y="-14" on="0"/>
        <pt x="764" y="31" on="0"/>
        <pt x="809" y="108" on="0"/>
        <pt x="809" y="154" on="1"/>
        <pt x="809" y="200" on="0"/>
        <pt x="764" y="276" on="0"/>
        <pt x="688" y="321" on="0"/>
        <pt x="642" y="321" on="1"/>
        <pt x="596" y="321" on="0"/>
        <pt x="520" y="276" on="0"/>
        <pt x="475" y="201" on="0"/>
        <pt x="475" y="154" on="1"/>
        <pt x="475" y="108" on="0"/>
        <pt x="520" y="31" on="0"/>
        <pt x="596" y="-14" on="0"/>
      </contour>
    </TTGlyph>
    <TTGlyph name="period" xMin="71" yMin="-4" xMax="93" yMax="18">
      <contour>
        <pt x="71" y="7" on="1"/>
        <pt x="71" y="18" on="0"/>
        <pt x="82" y="18" on="1"/>
        <pt x="93" y="18" on="0"/>
        <pt x="93" y="7" on="1"/>
        <pt x="93" y="-4" on="0"/>
        <pt x="82" y="-4" on="1"/>
        <pt x="71" y="-4" on="0"/>
      </contour>
    </TTGlyph>
    <TTGlyph name="periodcentered" xMin="70" yMin="274" xMax="92" yMax="296">
      <contour>
        <pt x="81" y="274" on="1"/>
        <pt x="70" y="274" on="0"/>
        <pt x="70" y="285" on="1"/>
        <pt x="70" y="296" on="0"/>
        <pt x="81" y="296" on="1"/>
        <pt x="92" y="296" on="0"/>
        <pt x="92" y="285" on="1"/>
        <pt x="92" y="274" on="0"/>
      </contour>
    </TTGlyph>
    <TTGlyph name="plus" xMin="82" yMin="284" xMax="442" yMax="455">
      <contour>
        <pt x="82" y="284" on="1"/>
        <pt x="82" y="289" on="1"/>
        <pt x="260" y="289" on="1"/>
        <pt x="260" y="455" on="1"/>
        <pt x="265" y="455" on="1"/>
        <pt x="265" y="289" on="1"/>
        <pt x="442" y="289" on="1"/>
        <pt x="442" y="284" on="1"/>
      </contour>
    </TTGlyph>
    <TTGlyph name="question" xMin="70" yMin="-4" xMax="479" yMax="621">
      <contour>
        <pt x="259" y="122" on="1"/>
        <pt x="259" y="131" on="1"/>
        <pt x="259" y="171" on="0"/>
        <pt x="302" y="233" on="0"/>
        <pt x="366" y="285" on="0"/>
        <pt x="430" y="339" on="0"/>
        <pt x="473" y="404" on="0"/>
        <pt x="473" y="447" on="1"/>
        <pt x="474" y="493" on="0"/>
        <pt x="421" y="570" on="0"/>
        <pt x="334" y="616" on="0"/>
        <pt x="281" y="616" on="1"/>
        <pt x="234" y="616" on="0"/>
        <pt x="153" y="581" on="0"/>
        <pt x="92" y="523" on="0"/>
        <pt x="74" y="488" on="1"/>
        <pt x="70" y="490" on="1"/>
        <pt x="88" y="526" on="0"/>
        <pt x="151" y="585" on="0"/>
        <pt x="233" y="621" on="0"/>
        <pt x="281" y="621" on="1"/>
        <pt x="335" y="621" on="0"/>
        <pt x="425" y="574" on="0"/>
        <pt x="479" y="495" on="0"/>
        <pt x="479" y="447" on="1"/>
        <pt x="479" y="403" on="0"/>
        <pt x="435" y="337" on="0"/>
        <pt x="371" y="282" on="0"/>
        <pt x="307" y="230" on="0"/>
        <pt x="263" y="170" on="0"/>
        <pt x="263" y="131" on="1"/>
        <pt x="264" y="122" on="1"/>
      </contour>
      <contour>
        <pt x="263" y="-4" on="1"/>
        <pt x="252" y="-4" on="0"/>
        <pt x="252" y="7" on="1"/>
        <pt x="252" y="18" on="0"/>
        <pt x="263" y="18" on="1"/>
        <pt x="274" y="18" on="0"/>
        <pt x="274" y="7" on="1"/>
        <pt x="274" y="-4" on="0"/>
      </contour>
    </TTGlyph>
    <TTGlyph name="quotedbl" xMin="82" yMin="365" xMax="294" yMax="600">
      <contour>
        <pt x="217" y="365" on="1"/>
        <pt x="289" y="600" on="1"/>
        <pt x="294" y="600" on="1"/>
        <pt x="222" y="365" on="1"/>
      </contour>
      <contour>
        <pt x="82" y="365" on="1"/>
        <pt x="154" y="600" on="1"/>
        <pt x="159" y="600" on="1"/>
        <pt x="87" y="365" on="1"/>
      </contour>
    </TTGlyph>
    <TTGlyph name="quotesingle" xMin="82" yMin="365" xMax="159" yMax="600">
      <contour>
        <pt x="82" y="365" on="1"/>
        <pt x="154" y="600" on="1"/>
        <pt x="159" y="600" on="1"/>
        <pt x="87" y="365" on="1"/>
      </contour>
    </TTGlyph>
    <TTGlyph name="registered" xMin="102" yMin="206" xMax="494" yMax="598">
      <contour>
        <pt x="298" y="206" on="1"/>
        <pt x="244" y="206" on="0"/>
        <pt x="155" y="259" on="0"/>
        <pt x="102" y="348" on="0"/>
        <pt x="102" y="402" on="1"/>
        <pt x="102" y="456" on="0"/>
        <pt x="155" y="545" on="0"/>
        <pt x="244" y="598" on="0"/>
        <pt x="298" y="598" on="1"/>
        <pt x="352" y="598" on="0"/>
        <pt x="441" y="545" on="0"/>
        <pt x="494" y="456" on="0"/>
        <pt x="494" y="402" on="1"/>
        <pt x="494" y="348" on="0"/>
        <pt x="441" y="259" on="0"/>
        <pt x="352" y="206" on="0"/>
      </contour>
      <contour>
        <pt x="298" y="211" on="1"/>
        <pt x="351" y="211" on="0"/>
        <pt x="437" y="262" on="0"/>
        <pt x="489" y="349" on="0"/>
        <pt x="489" y="402" on="1"/>
        <pt x="489" y="454" on="0"/>
        <pt x="437" y="541" on="0"/>
        <pt x="351" y="593" on="0"/>
        <pt x="298" y="593" on="1"/>
        <pt x="245" y="593" on="0"/>
        <pt x="158" y="541" on="0"/>
        <pt x="107" y="455" on="0"/>
        <pt x="107" y="402" on="1"/>
        <pt x="107" y="350" on="0"/>
        <pt x="158" y="263" on="0"/>
        <pt x="245" y="211" on="0"/>
      </contour>
      <contour>
        <pt x="243" y="300" on="1"/>
        <pt x="243" y="502" on="1"/>
        <pt x="295" y="502" on="1"/>
        <pt x="330" y="502" on="0"/>
        <pt x="372" y="467" on="0"/>
        <pt x="372" y="438" on="1"/>
        <pt x="372" y="416" on="0"/>
        <pt x="342" y="388" on="0"/>
        <pt x="316" y="383" on="1"/>
        <pt x="370" y="300" on="1"/>
        <pt x="365" y="300" on="1"/>
        <pt x="311" y="382" on="1"/>
        <pt x="248" y="382" on="1"/>
        <pt x="248" y="300" on="1"/>
      </contour>
      <contour>
        <pt x="248" y="387" on="1"/>
        <pt x="295" y="387" on="1"/>
        <pt x="329" y="386" on="0"/>
        <pt x="367" y="414" on="0"/>
        <pt x="367" y="438" on="1"/>
        <pt x="367" y="465" on="0"/>
        <pt x="328" y="497" on="0"/>
        <pt x="295" y="497" on="1"/>
        <pt x="248" y="497" on="1"/>
      </contour>
    </TTGlyph>
    <TTGlyph name="semicolon" xMin="37" yMin="-118" xMax="94" yMax="448">
      <contour>
        <pt x="81" y="426" on="1"/>
        <pt x="70" y="426" on="0"/>
        <pt x="70" y="437" on="1"/>
        <pt x="70" y="448" on="0"/>
        <pt x="81" y="448" on="1"/>
        <pt x="92" y="448" on="0"/>
        <pt x="92" y="437" on="1"/>
        <pt x="92" y="426" on="0"/>
      </contour>
      <contour>
        <pt x="37" y="-118" on="1"/>
        <pt x="90" y="128" on="1"/>
        <pt x="94" y="128" on="1"/>
        <pt x="42" y="-118" on="1"/>
      </contour>
    </TTGlyph>
    <TTGlyph name="seven" xMin="20" yMin="0" xMax="432" yMax="602">
      <contour>
        <pt x="174" y="0" on="1"/>
        <pt x="169" y="0" on="1"/>
        <pt x="424" y="597" on="1"/>
        <pt x="20" y="597" on="1"/>
        <pt x="20" y="602" on="1"/>
        <pt x="432" y="602" on="1"/>
      </contour>
    </TTGlyph>
    <TTGlyph name="six" xMin="78" yMin="-13" xMax="440" yMax="607">
      <contour>
        <pt x="78" y="175" on="1"/>
        <pt x="78" y="410" on="0"/>
        <pt x="303" y="607" on="1"/>
        <pt x="307" y="603" on="1"/>
        <pt x="204" y="514" on="0"/>
        <pt x="96" y="318" on="0"/>
        <pt x="86" y="223" on="1"/>
        <pt x="102" y="273" on="0"/>
        <pt x="194" y="341" on="0"/>
        <pt x="258" y="341" on="1"/>
        <pt x="310" y="341" on="0"/>
        <pt x="392" y="294" on="0"/>
        <pt x="440" y="215" on="0"/>
        <pt x="440" y="166" on="1"/>
        <pt x="440" y="117" on="0"/>
        <pt x="397" y="36" on="0"/>
        <pt x="315" y="-13" on="0"/>
        <pt x="258" y="-13" on="1"/>
        <pt x="209" y="-13" on="0"/>
        <pt x="127" y="39" on="0"/>
        <pt x="78" y="124" on="0"/>
      </contour>
      <contour>
        <pt x="258" y="-8" on="1"/>
        <pt x="314" y="-8" on="0"/>
        <pt x="393" y="39" on="0"/>
        <pt x="435" y="119" on="0"/>
        <pt x="435" y="166" on="1"/>
        <pt x="435" y="214" on="0"/>
        <pt x="388" y="291" on="0"/>
        <pt x="308" y="336" on="0"/>
        <pt x="258" y="336" on="1"/>
        <pt x="210" y="336" on="0"/>
        <pt x="131" y="292" on="0"/>
        <pt x="83" y="219" on="0"/>
        <pt x="83" y="175" on="1"/>
        <pt x="83" y="126" on="0"/>
        <pt x="131" y="42" on="0"/>
        <pt x="210" y="-8" on="0"/>
      </contour>
    </TTGlyph>
    <TTGlyph name="slash" xMin="70" yMin="-184" xMax="347" yMax="730">
      <contour>
        <pt x="70" y="-184" on="1"/>
        <pt x="343" y="730" on="1"/>
        <pt x="347" y="730" on="1"/>
        <pt x="75" y="-184" on="1"/>
      </contour>
    </TTGlyph>
    <TTGlyph name="three" xMin="72" yMin="-3" xMax="472" yMax="602">
      <contour>
        <pt x="263" y="-3" on="1"/>
        <pt x="228" y="-3" on="0"/>
        <pt x="121" y="32" on="0"/>
        <pt x="72" y="59" on="1"/>
        <pt x="74" y="64" on="1"/>
        <pt x="121" y="37" on="0"/>
        <pt x="227" y="2" on="0"/>
        <pt x="263" y="2" on="1"/>
        <pt x="319" y="2" on="0"/>
        <pt x="411" y="53" on="0"/>
        <pt x="467" y="138" on="0"/>
        <pt x="467" y="188" on="1"/>
        <pt x="467" y="253" on="0"/>
        <pt x="353" y="347" on="0"/>
        <pt x="221" y="378" on="1"/>
        <pt x="431" y="576" on="1"/>
        <pt x="453" y="597" on="1"/>
        <pt x="84" y="597" on="1"/>
        <pt x="84" y="602" on="1"/>
        <pt x="459" y="602" on="1"/>
        <pt x="459" y="597" on="1"/>
        <pt x="230" y="381" on="1"/>
        <pt x="472" y="327" on="0"/>
        <pt x="472" y="188" on="1"/>
        <pt x="472" y="136" on="0"/>
        <pt x="415" y="49" on="0"/>
        <pt x="320" y="-3" on="0"/>
      </contour>
    </TTGlyph>
    <TTGlyph name="trademark" xMin="40" yMin="272" xMax="609" yMax="537">
      <contour>
        <pt x="155" y="272" on="1"/>
        <pt x="155" y="532" on="1"/>
        <pt x="40" y="532" on="1"/>
        <pt x="40" y="537" on="1"/>
        <pt x="276" y="537" on="1"/>
        <pt x="276" y="532" on="1"/>
        <pt x="160" y="532" on="1"/>
        <pt x="160" y="272" on="1"/>
      </contour>
      <contour>
        <pt x="328" y="272" on="1"/>
        <pt x="328" y="534" on="1"/>
        <pt x="333" y="534" on="1"/>
        <pt x="468" y="388" on="1"/>
        <pt x="603" y="534" on="1"/>
        <pt x="609" y="534" on="1"/>
        <pt x="609" y="272" on="1"/>
        <pt x="604" y="272" on="1"/>
        <pt x="604" y="528" on="1"/>
        <pt x="468" y="380" on="1"/>
        <pt x="333" y="527" on="1"/>
        <pt x="333" y="272" on="1"/>
      </contour>
    </TTGlyph>
    <TTGlyph name="two" xMin="53" yMin="0" xMax="481" yMax="608">
      <contour>
        <pt x="76" y="0" on="1"/>
        <pt x="76" y="5" on="1"/>
        <pt x="193" y="97" on="0"/>
        <pt x="360" y="237" on="0"/>
        <pt x="448" y="362" on="0"/>
        <pt x="448" y="429" on="1"/>
        <pt x="448" y="476" on="0"/>
        <pt x="402" y="555" on="0"/>
        <pt x="321" y="603" on="0"/>
        <pt x="268" y="602" on="1"/>
        <pt x="142" y="603" on="0"/>
        <pt x="56" y="486" on="1"/>
        <pt x="53" y="489" on="1"/>
        <pt x="143" y="608" on="0"/>
        <pt x="268" y="607" on="1"/>
        <pt x="322" y="608" on="0"/>
        <pt x="406" y="558" on="0"/>
        <pt x="453" y="477" on="0"/>
        <pt x="453" y="429" on="1"/>
        <pt x="453" y="361" on="0"/>
        <pt x="367" y="237" on="0"/>
        <pt x="202" y="97" on="0"/>
        <pt x="85" y="5" on="1"/>
        <pt x="481" y="5" on="1"/>
        <pt x="481" y="0" on="1"/>
      </contour>
    </TTGlyph>
    <TTGlyph name="underscore" xMin="72" yMin="0" xMax="442" yMax="5">
      <contour>
        <pt x="72" y="5" on="1"/>
        <pt x="442" y="5" on="1"/>
        <pt x="442" y="0" on="1"/>
        <pt x="72" y="0" on="1"/>
      </contour>
    </TTGlyph>
    <TTGlyph name="uni05B0" xMin="-14" yMin="-233" xMax="13" yMax="-90">
      <contour>
        <pt x="0" y="-118" on="1"/>
        <pt x="-14" y="-118" on="0"/>
        <pt x="-14" y="-104" on="1"/>
        <pt x="-14" y="-90" on="0"/>
        <pt x="0" y="-90" on="1"/>
        <pt x="13" y="-90" on="0"/>
        <pt x="13" y="-104" on="1"/>
        <pt x="13" y="-118" on="0"/>
      </contour>
      <contour>
        <pt x="0" y="-233" on="1"/>
        <pt x="-14" y="-233" on="0"/>
        <pt x="-14" y="-219" on="1"/>
        <pt x="-14" y="-205" on="0"/>
        <pt x="0" y="-205" on="1"/>
        <pt x="13" y="-205" on="0"/>
        <pt x="13" y="-219" on="1"/>
        <pt x="13" y="-233" on="0"/>
      </contour>
    </TTGlyph>
    <TTGlyph name="uni05B1" xMin="-129" yMin="-233" xMax="129" yMax="-90">
      <contour>
        <pt x="116" y="-118" on="1"/>
        <pt x="102" y="-118" on="0"/>
        <pt x="102" y="-104" on="1"/>
        <pt x="102" y="-90" on="0"/>
        <pt x="116" y="-90" on="1"/>
        <pt x="129" y="-90" on="0"/>
        <pt x="129" y="-104" on="1"/>
        <pt x="129" y="-118" on="0"/>
      </contour>
      <contour>
        <pt x="-115" y="-118" on="1"/>
        <pt x="-129" y="-118" on="0"/>
        <pt x="-129" y="-104" on="1"/>
        <pt x="-129" y="-90" on="0"/>
        <pt x="-115" y="-90" on="1"/>
        <pt x="-102" y="-90" on="0"/>
        <pt x="-102" y="-104" on="1"/>
        <pt x="-102" y="-118" on="0"/>
      </contour>
      <contour>
        <pt x="-1" y="-118" on="1"/>
        <pt x="-15" y="-118" on="0"/>
        <pt x="-15" y="-104" on="1"/>
        <pt x="-15" y="-90" on="0"/>
        <pt x="-1" y="-90" on="1"/>
        <pt x="12" y="-90" on="0"/>
        <pt x="12" y="-104" on="1"/>
        <pt x="12" y="-118" on="0"/>
      </contour>
      <contour>
        <pt x="116" y="-233" on="1"/>
        <pt x="102" y="-233" on="0"/>
        <pt x="102" y="-219" on="1"/>
        <pt x="102" y="-205" on="0"/>
        <pt x="116" y="-205" on="1"/>
        <pt x="129" y="-205" on="0"/>
        <pt x="129" y="-219" on="1"/>
        <pt x="129" y="-233" on="0"/>
      </contour>
      <contour>
        <pt x="-58" y="-233" on="1"/>
        <pt x="-72" y="-233" on="0"/>
        <pt x="-72" y="-219" on="1"/>
        <pt x="-72" y="-205" on="0"/>
        <pt x="-58" y="-205" on="1"/>
        <pt x="-45" y="-205" on="0"/>
        <pt x="-45" y="-219" on="1"/>
        <pt x="-45" y="-233" on="0"/>
      </contour>
    </TTGlyph>
    <TTGlyph name="uni05B2" xMin="-149" yMin="-233" xMax="127" yMax="-90">
      <contour>
        <pt x="114" y="-118" on="1"/>
        <pt x="100" y="-118" on="0"/>
        <pt x="100" y="-104" on="1"/>
        <pt x="100" y="-90" on="0"/>
        <pt x="114" y="-90" on="1"/>
        <pt x="127" y="-90" on="0"/>
        <pt x="127" y="-104" on="1"/>
        <pt x="127" y="-118" on="0"/>
      </contour>
      <contour>
        <pt x="-149" y="-104" on="1"/>
        <pt x="-149" y="-99" on="1"/>
        <pt x="27" y="-99" on="1"/>
        <pt x="27" y="-104" on="1"/>
      </contour>
      <contour>
        <pt x="114" y="-233" on="1"/>
        <pt x="100" y="-233" on="0"/>
        <pt x="100" y="-219" on="1"/>
        <pt x="100" y="-205" on="0"/>
        <pt x="114" y="-205" on="1"/>
        <pt x="127" y="-205" on="0"/>
        <pt x="127" y="-219" on="1"/>
        <pt x="127" y="-233" on="0"/>
      </contour>
    </TTGlyph>
    <TTGlyph name="uni05B3" xMin="-169" yMin="-233" xMax="107" yMax="-90">
      <contour>
        <pt x="94" y="-118" on="1"/>
        <pt x="80" y="-118" on="0"/>
        <pt x="80" y="-104" on="1"/>
        <pt x="80" y="-90" on="0"/>
        <pt x="94" y="-90" on="1"/>
        <pt x="107" y="-90" on="0"/>
        <pt x="107" y="-104" on="1"/>
        <pt x="107" y="-118" on="0"/>
      </contour>
      <contour>
        <pt x="-84" y="-224" on="1"/>
        <pt x="-84" y="-104" on="1"/>
        <pt x="-169" y="-104" on="1"/>
        <pt x="-169" y="-99" on="1"/>
        <pt x="7" y="-99" on="1"/>
        <pt x="7" y="-104" on="1"/>
        <pt x="-79" y="-104" on="1"/>
        <pt x="-79" y="-224" on="1"/>
      </contour>
      <contour>
        <pt x="94" y="-233" on="1"/>
        <pt x="80" y="-233" on="0"/>
        <pt x="80" y="-219" on="1"/>
        <pt x="80" y="-205" on="0"/>
        <pt x="94" y="-205" on="1"/>
        <pt x="107" y="-205" on="0"/>
        <pt x="107" y="-219" on="1"/>
        <pt x="107" y="-233" on="0"/>
      </contour>
    </TTGlyph>
    <TTGlyph name="uni05B4" xMin="-11" yMin="-115" xMax="10" yMax="-94">
      <contour>
        <pt x="0" y="-115" on="1"/>
        <pt x="-11" y="-115" on="0"/>
        <pt x="-11" y="-104" on="1"/>
        <pt x="-11" y="-94" on="0"/>
        <pt x="0" y="-94" on="1"/>
        <pt x="10" y="-94" on="0"/>
        <pt x="10" y="-104" on="1"/>
        <pt x="10" y="-115" on="0"/>
      </contour>
    </TTGlyph>
    <TTGlyph name="uni05B5" xMin="-91" yMin="-118" xMax="90" yMax="-90">
      <contour>
        <pt x="-77" y="-118" on="1"/>
        <pt x="-91" y="-118" on="0"/>
        <pt x="-91" y="-104" on="1"/>
        <pt x="-91" y="-90" on="0"/>
        <pt x="-77" y="-90" on="1"/>
        <pt x="-64" y="-90" on="0"/>
        <pt x="-64" y="-104" on="1"/>
        <pt x="-64" y="-118" on="0"/>
      </contour>
      <contour>
        <pt x="77" y="-118" on="1"/>
        <pt x="63" y="-118" on="0"/>
        <pt x="63" y="-104" on="1"/>
        <pt x="63" y="-90" on="0"/>
        <pt x="77" y="-90" on="1"/>
        <pt x="90" y="-90" on="0"/>
        <pt x="90" y="-104" on="1"/>
        <pt x="90" y="-118" on="0"/>
      </contour>
    </TTGlyph>
    <TTGlyph name="uni05B6" xMin="-91" yMin="-233" xMax="90" yMax="-90">
      <contour>
        <pt x="-77" y="-118" on="1"/>
        <pt x="-91" y="-118" on="0"/>
        <pt x="-91" y="-104" on="1"/>
        <pt x="-91" y="-90" on="0"/>
        <pt x="-77" y="-90" on="1"/>
        <pt x="-64" y="-90" on="0"/>
        <pt x="-64" y="-104" on="1"/>
        <pt x="-64" y="-118" on="0"/>
      </contour>
      <contour>
        <pt x="77" y="-118" on="1"/>
        <pt x="63" y="-118" on="0"/>
        <pt x="63" y="-104" on="1"/>
        <pt x="63" y="-90" on="0"/>
        <pt x="77" y="-90" on="1"/>
        <pt x="90" y="-90" on="0"/>
        <pt x="90" y="-104" on="1"/>
        <pt x="90" y="-118" on="0"/>
      </contour>
      <contour>
        <pt x="0" y="-233" on="1"/>
        <pt x="-14" y="-233" on="0"/>
        <pt x="-14" y="-219" on="1"/>
        <pt x="-14" y="-205" on="0"/>
        <pt x="0" y="-205" on="1"/>
        <pt x="13" y="-205" on="0"/>
        <pt x="13" y="-219" on="1"/>
        <pt x="13" y="-233" on="0"/>
      </contour>
    </TTGlyph>
    <TTGlyph name="uni05B7" xMin="-117" yMin="-104" xMax="119" yMax="-99">
      <contour>
        <pt x="-117" y="-104" on="1"/>
        <pt x="-117" y="-99" on="1"/>
        <pt x="119" y="-99" on="1"/>
        <pt x="119" y="-104" on="1"/>
      </contour>
    </TTGlyph>
    <TTGlyph name="uni05B8" xMin="-117" yMin="-246" xMax="119" yMax="-99">
      <contour>
        <pt x="-117" y="-104" on="1"/>
        <pt x="-117" y="-99" on="1"/>
        <pt x="119" y="-99" on="1"/>
        <pt x="119" y="-104" on="1"/>
        <pt x="3" y="-104" on="1"/>
        <pt x="2" y="-246" on="1"/>
        <pt x="-3" y="-246" on="1"/>
        <pt x="-2" y="-104" on="1"/>
      </contour>
    </TTGlyph>
    <TTGlyph name="uni05B8.narrow" xMin="-97" yMin="-246" xMax="99" yMax="-99">
      <contour>
        <pt x="-97" y="-104" on="1"/>
        <pt x="-97" y="-99" on="1"/>
        <pt x="99" y="-99" on="1"/>
        <pt x="99" y="-104" on="1"/>
        <pt x="3" y="-104" on="1"/>
        <pt x="2" y="-246" on="1"/>
        <pt x="-3" y="-246" on="1"/>
        <pt x="-2" y="-104" on="1"/>
      </contour>
    </TTGlyph>
    <TTGlyph name="uni05B9" xMin="-51" yMin="656" xMax="-24" yMax="684">
      <contour>
        <pt x="-37" y="656" on="1"/>
        <pt x="-51" y="656" on="0"/>
        <pt x="-51" y="670" on="1"/>
        <pt x="-51" y="684" on="0"/>
        <pt x="-37" y="684" on="1"/>
        <pt x="-24" y="684" on="0"/>
        <pt x="-24" y="670" on="1"/>
        <pt x="-24" y="656" on="0"/>
      </contour>
    </TTGlyph>
    <TTGlyph name="uni05BA" xMin="-51" yMin="656" xMax="-24" yMax="684">
      <contour>
        <pt x="-37" y="656" on="1"/>
        <pt x="-51" y="656" on="0"/>
        <pt x="-51" y="670" on="1"/>
        <pt x="-51" y="684" on="0"/>
        <pt x="-37" y="684" on="1"/>
        <pt x="-24" y="684" on="0"/>
        <pt x="-24" y="670" on="1"/>
        <pt x="-24" y="656" on="0"/>
      </contour>
    </TTGlyph>
    <TTGlyph name="uni05BB" xMin="-14" yMin="-314" xMax="147" yMax="-90">
      <contour>
        <pt x="0" y="-118" on="1"/>
        <pt x="-14" y="-118" on="0"/>
        <pt x="-14" y="-104" on="1"/>
        <pt x="-14" y="-90" on="0"/>
        <pt x="0" y="-90" on="1"/>
        <pt x="13" y="-90" on="0"/>
        <pt x="13" y="-104" on="1"/>
        <pt x="13" y="-118" on="0"/>
      </contour>
      <contour>
        <pt x="67" y="-216" on="1"/>
        <pt x="53" y="-216" on="0"/>
        <pt x="53" y="-202" on="1"/>
        <pt x="53" y="-188" on="0"/>
        <pt x="67" y="-188" on="1"/>
        <pt x="80" y="-188" on="0"/>
        <pt x="80" y="-202" on="1"/>
        <pt x="80" y="-216" on="0"/>
      </contour>
      <contour>
        <pt x="134" y="-314" on="1"/>
        <pt x="120" y="-314" on="0"/>
        <pt x="120" y="-300" on="1"/>
        <pt x="120" y="-286" on="0"/>
        <pt x="134" y="-286" on="1"/>
        <pt x="147" y="-286" on="0"/>
        <pt x="147" y="-300" on="1"/>
        <pt x="147" y="-314" on="0"/>
      </contour>
    </TTGlyph>
    <TTGlyph name="uni05BC" xMin="36" yMin="202" xMax="59" yMax="226">
      <contour>
        <pt x="48" y="202" on="1"/>
        <pt x="36" y="202" on="0"/>
        <pt x="36" y="214" on="1"/>
        <pt x="36" y="226" on="0"/>
        <pt x="48" y="226" on="1"/>
        <pt x="59" y="226" on="0"/>
        <pt x="59" y="214" on="1"/>
        <pt x="59" y="202" on="0"/>
      </contour>
    </TTGlyph>
    <TTGlyph name="uni05BE" xMin="72" yMin="551" xMax="281" yMax="556">
      <contour>
        <pt x="72" y="556" on="1"/>
        <pt x="281" y="556" on="1"/>
        <pt x="281" y="551" on="1"/>
        <pt x="72" y="551" on="1"/>
      </contour>
    </TTGlyph>
    <TTGlyph name="uni05BF" xMin="-117" yMin="641" xMax="119" yMax="646">
      <contour>
        <pt x="-117" y="641" on="1"/>
        <pt x="-117" y="646" on="1"/>
        <pt x="119" y="646" on="1"/>
        <pt x="119" y="641" on="1"/>
      </contour>
    </TTGlyph>
    <TTGlyph name="uni05C1" xMin="-86" yMin="656" xMax="-59" yMax="684">
      <contour>
        <pt x="-72" y="656" on="1"/>
        <pt x="-86" y="656" on="0"/>
        <pt x="-86" y="670" on="1"/>
        <pt x="-86" y="684" on="0"/>
        <pt x="-72" y="684" on="1"/>
        <pt x="-59" y="684" on="0"/>
        <pt x="-59" y="670" on="1"/>
        <pt x="-59" y="656" on="0"/>
      </contour>
    </TTGlyph>
    <TTGlyph name="uni05C2" xMin="75" yMin="656" xMax="102" yMax="684">
      <contour>
        <pt x="89" y="656" on="1"/>
        <pt x="75" y="656" on="0"/>
        <pt x="75" y="670" on="1"/>
        <pt x="75" y="684" on="0"/>
        <pt x="89" y="684" on="1"/>
        <pt x="102" y="684" on="0"/>
        <pt x="102" y="670" on="1"/>
        <pt x="102" y="656" on="0"/>
      </contour>
    </TTGlyph>
    <TTGlyph name="uni05D0" xMin="85" yMin="-1" xMax="608" yMax="561">
      <contour>
        <pt x="115" y="0" on="1"/>
        <pt x="115" y="60" on="0"/>
        <pt x="126" y="185" on="0"/>
        <pt x="151" y="302" on="0"/>
        <pt x="192" y="399" on="0"/>
        <pt x="222" y="430" on="1"/>
        <pt x="192" y="459" on="0"/>
        <pt x="124" y="523" on="0"/>
        <pt x="85" y="559" on="1"/>
        <pt x="88" y="561" on="1"/>
        <pt x="189" y="469" on="0"/>
        <pt x="332" y="334" on="0"/>
        <pt x="438" y="226" on="0"/>
        <pt x="482" y="173" on="1"/>
        <pt x="517" y="222" on="0"/>
        <pt x="560" y="356" on="0"/>
        <pt x="579" y="496" on="0"/>
        <pt x="579" y="556" on="1"/>
        <pt x="584" y="556" on="1"/>
        <pt x="584" y="492" on="0"/>
        <pt x="563" y="349" on="0"/>
        <pt x="520" y="216" on="0"/>
        <pt x="486" y="169" on="1"/>
        <pt x="517" y="132" on="0"/>
        <pt x="576" y="51" on="0"/>
        <pt x="608" y="2" on="1"/>
        <pt x="604" y="-1" on="1"/>
        <pt x="562" y="63" on="0"/>
        <pt x="483" y="166" on="0"/>
        <pt x="398" y="260" on="0"/>
        <pt x="295" y="362" on="0"/>
        <pt x="227" y="426" on="1"/>
        <pt x="195" y="394" on="0"/>
        <pt x="154" y="297" on="0"/>
        <pt x="130" y="181" on="0"/>
        <pt x="120" y="58" on="0"/>
        <pt x="120" y="0" on="1"/>
      </contour>
    </TTGlyph>
    <TTGlyph name="uni05D0.forDagesh" xMin="85" yMin="-1" xMax="608" yMax="561">
      <contour>
        <pt x="115" y="0" on="1"/>
        <pt x="115" y="60" on="0"/>
        <pt x="126" y="185" on="0"/>
        <pt x="151" y="302" on="0"/>
        <pt x="192" y="399" on="0"/>
        <pt x="222" y="430" on="1"/>
        <pt x="192" y="459" on="0"/>
        <pt x="124" y="523" on="0"/>
        <pt x="85" y="559" on="1"/>
        <pt x="88" y="561" on="1"/>
        <pt x="189" y="469" on="0"/>
        <pt x="332" y="334" on="0"/>
        <pt x="438" y="226" on="0"/>
        <pt x="482" y="173" on="1"/>
        <pt x="517" y="222" on="0"/>
        <pt x="560" y="356" on="0"/>
        <pt x="579" y="496" on="0"/>
        <pt x="579" y="556" on="1"/>
        <pt x="584" y="556" on="1"/>
        <pt x="584" y="492" on="0"/>
        <pt x="563" y="349" on="0"/>
        <pt x="520" y="216" on="0"/>
        <pt x="486" y="169" on="1"/>
        <pt x="517" y="132" on="0"/>
        <pt x="576" y="51" on="0"/>
        <pt x="608" y="2" on="1"/>
        <pt x="604" y="-1" on="1"/>
        <pt x="562" y="63" on="0"/>
        <pt x="483" y="166" on="0"/>
        <pt x="398" y="260" on="0"/>
        <pt x="295" y="362" on="0"/>
        <pt x="227" y="426" on="1"/>
        <pt x="195" y="394" on="0"/>
        <pt x="154" y="297" on="0"/>
        <pt x="130" y="181" on="0"/>
        <pt x="120" y="58" on="0"/>
        <pt x="120" y="0" on="1"/>
      </contour>
    </TTGlyph>
    <TTGlyph name="uni05D1" xMin="77" yMin="0" xMax="524" yMax="561">
      <contour>
        <pt x="77" y="0" on="1"/>
        <pt x="77" y="5" on="1"/>
        <pt x="452" y="5" on="1"/>
        <pt x="452" y="338" on="1"/>
        <pt x="452" y="453" on="0"/>
        <pt x="354" y="556" on="0"/>
        <pt x="247" y="556" on="1"/>
        <pt x="77" y="556" on="1"/>
        <pt x="77" y="561" on="1"/>
        <pt x="247" y="561" on="1"/>
        <pt x="362" y="561" on="0"/>
        <pt x="457" y="450" on="0"/>
        <pt x="457" y="338" on="1"/>
        <pt x="457" y="5" on="1"/>
        <pt x="524" y="5" on="1"/>
        <pt x="524" y="0" on="1"/>
      </contour>
    </TTGlyph>
    <TTGlyph name="uni05D2" xMin="62" yMin="0" xMax="255" yMax="561">
      <contour>
        <pt x="63" y="0" on="1"/>
        <pt x="62" y="5" on="1"/>
        <pt x="86" y="10" on="0"/>
        <pt x="137" y="59" on="0"/>
        <pt x="184" y="130" on="0"/>
        <pt x="225" y="205" on="0"/>
        <pt x="240" y="237" on="1"/>
        <pt x="240" y="245" on="1"/>
        <pt x="238" y="314" on="0"/>
        <pt x="231" y="422" on="0"/>
        <pt x="206" y="499" on="0"/>
        <pt x="149" y="546" on="0"/>
        <pt x="96" y="556" on="1"/>
        <pt x="97" y="561" on="1"/>
        <pt x="151" y="551" on="0"/>
        <pt x="209" y="502" on="0"/>
        <pt x="235" y="424" on="0"/>
        <pt x="243" y="316" on="0"/>
        <pt x="245" y="245" on="1"/>
        <pt x="255" y="0" on="1"/>
        <pt x="250" y="0" on="1"/>
        <pt x="241" y="227" on="1"/>
        <pt x="226" y="196" on="0"/>
        <pt x="186" y="122" on="0"/>
        <pt x="138" y="54" on="0"/>
        <pt x="88" y="5" on="0"/>
      </contour>
    </TTGlyph>
    <TTGlyph name="uni05D3" xMin="45" yMin="4" xMax="467" yMax="560">
      <contour>
        <pt x="397" y="4" on="1"/>
        <pt x="397" y="555" on="1"/>
        <pt x="45" y="555" on="1"/>
        <pt x="45" y="560" on="1"/>
        <pt x="467" y="560" on="1"/>
        <pt x="467" y="555" on="1"/>
        <pt x="402" y="555" on="1"/>
        <pt x="402" y="4" on="1"/>
      </contour>
    </TTGlyph>
    <TTGlyph name="uni05D4" xMin="96" yMin="0" xMax="524" yMax="557">
      <contour>
        <pt x="518" y="0" on="1"/>
        <pt x="519" y="334" on="1"/>
        <pt x="519" y="450" on="0"/>
        <pt x="430" y="552" on="0"/>
        <pt x="323" y="552" on="1"/>
        <pt x="96" y="552" on="1"/>
        <pt x="96" y="557" on="1"/>
        <pt x="323" y="557" on="1"/>
        <pt x="433" y="557" on="0"/>
        <pt x="524" y="450" on="0"/>
        <pt x="524" y="334" on="1"/>
        <pt x="523" y="0" on="1"/>
      </contour>
      <contour>
        <pt x="99" y="0" on="1"/>
        <pt x="100" y="338" on="1"/>
        <pt x="105" y="338" on="1"/>
        <pt x="104" y="0" on="1"/>
      </contour>
    </TTGlyph>
    <TTGlyph name="uni05D5" xMin="80" yMin="-1" xMax="196" yMax="563">
      <contour>
        <pt x="191" y="-1" on="1"/>
        <pt x="191" y="392" on="1"/>
        <pt x="191" y="461" on="0"/>
        <pt x="138" y="542" on="0"/>
        <pt x="80" y="558" on="1"/>
        <pt x="81" y="563" on="1"/>
        <pt x="140" y="546" on="0"/>
        <pt x="196" y="463" on="0"/>
        <pt x="196" y="392" on="1"/>
        <pt x="196" y="-1" on="1"/>
      </contour>
    </TTGlyph>
    <TTGlyph name="uni05D6" xMin="73" yMin="0" xMax="260" yMax="560">
      <contour>
        <pt x="204" y="0" on="1"/>
        <pt x="192" y="45" on="0"/>
        <pt x="165" y="195" on="0"/>
        <pt x="161" y="277" on="1"/>
        <pt x="159" y="333" on="0"/>
        <pt x="163" y="439" on="0"/>
        <pt x="172" y="527" on="0"/>
        <pt x="178" y="555" on="1"/>
        <pt x="73" y="555" on="1"/>
        <pt x="73" y="560" on="1"/>
        <pt x="260" y="560" on="1"/>
        <pt x="260" y="555" on="1"/>
        <pt x="181" y="555" on="1"/>
        <pt x="183" y="554" on="1"/>
        <pt x="176" y="513" on="0"/>
        <pt x="163" y="366" on="0"/>
        <pt x="167" y="277" on="1"/>
        <pt x="172" y="189" on="0"/>
        <pt x="199" y="45" on="0"/>
        <pt x="209" y="3" on="1"/>
      </contour>
    </TTGlyph>
    <TTGlyph name="uni05D7" xMin="96" yMin="0" xMax="526" yMax="561">
      <contour>
        <pt x="96" y="0" on="1"/>
        <pt x="96" y="561" on="1"/>
        <pt x="326" y="561" on="1"/>
        <pt x="435" y="561" on="0"/>
        <pt x="526" y="456" on="0"/>
        <pt x="526" y="338" on="1"/>
        <pt x="526" y="0" on="1"/>
        <pt x="521" y="0" on="1"/>
        <pt x="521" y="338" on="1"/>
        <pt x="521" y="451" on="0"/>
        <pt x="435" y="556" on="0"/>
        <pt x="326" y="556" on="1"/>
        <pt x="101" y="556" on="1"/>
        <pt x="101" y="0" on="1"/>
      </contour>
    </TTGlyph>
    <TTGlyph name="uni05D8" xMin="96" yMin="-11" xMax="584" yMax="559">
      <contour>
        <pt x="329" y="-11" on="1"/>
        <pt x="263" y="-11" on="0"/>
        <pt x="158" y="68" on="0"/>
        <pt x="96" y="220" on="0"/>
        <pt x="96" y="329" on="1"/>
        <pt x="96" y="556" on="1"/>
        <pt x="101" y="556" on="1"/>
        <pt x="101" y="329" on="1"/>
        <pt x="101" y="236" on="0"/>
        <pt x="154" y="84" on="0"/>
        <pt x="256" y="-6" on="0"/>
        <pt x="329" y="-6" on="1"/>
        <pt x="457" y="-6" on="0"/>
        <pt x="579" y="147" on="0"/>
        <pt x="579" y="276" on="1"/>
        <pt x="579" y="354" on="0"/>
        <pt x="547" y="480" on="0"/>
        <pt x="479" y="554" on="0"/>
        <pt x="423" y="554" on="1"/>
        <pt x="395" y="554" on="0"/>
        <pt x="323" y="530" on="0"/>
        <pt x="299" y="516" on="1"/>
        <pt x="296" y="520" on="1"/>
        <pt x="321" y="534" on="0"/>
        <pt x="395" y="559" on="0"/>
        <pt x="423" y="559" on="1"/>
        <pt x="481" y="559" on="0"/>
        <pt x="552" y="482" on="0"/>
        <pt x="584" y="353" on="0"/>
        <pt x="584" y="276" on="1"/>
        <pt x="584" y="143" on="0"/>
        <pt x="457" y="-11" on="0"/>
      </contour>
    </TTGlyph>
    <TTGlyph name="uni05D9" xMin="74" yMin="240" xMax="267" yMax="565">
      <contour>
        <pt x="243" y="240" on="1"/>
        <pt x="238" y="242" on="1"/>
        <pt x="247" y="277" on="0"/>
        <pt x="258" y="325" on="0"/>
        <pt x="262" y="367" on="0"/>
        <pt x="262" y="392" on="1"/>
        <pt x="262" y="469" on="0"/>
        <pt x="159" y="560" on="0"/>
        <pt x="74" y="560" on="1"/>
        <pt x="74" y="565" on="1"/>
        <pt x="160" y="565" on="0"/>
        <pt x="267" y="475" on="0"/>
        <pt x="267" y="392" on="1"/>
        <pt x="267" y="367" on="0"/>
        <pt x="263" y="324" on="0"/>
        <pt x="252" y="276" on="0"/>
      </contour>
    </TTGlyph>
    <TTGlyph name="uni05DA" xMin="93" yMin="-122" xMax="473" yMax="558">
      <contour>
        <pt x="403" y="-122" on="1"/>
        <pt x="403" y="552" on="1"/>
        <pt x="93" y="552" on="1"/>
        <pt x="93" y="557" on="1"/>
        <pt x="403" y="557" on="1"/>
        <pt x="403" y="558" on="1"/>
        <pt x="408" y="558" on="1"/>
        <pt x="408" y="557" on="1"/>
        <pt x="473" y="557" on="1"/>
        <pt x="473" y="552" on="1"/>
        <pt x="408" y="552" on="1"/>
        <pt x="408" y="-122" on="1"/>
      </contour>
    </TTGlyph>
    <TTGlyph name="uni05DB" xMin="70" yMin="0" xMax="448" yMax="561">
      <contour>
        <pt x="70" y="0" on="1"/>
        <pt x="70" y="5" on="1"/>
        <pt x="224" y="5" on="1"/>
        <pt x="301" y="5" on="0"/>
        <pt x="398" y="75" on="0"/>
        <pt x="443" y="199" on="0"/>
        <pt x="443" y="280" on="1"/>
        <pt x="443" y="416" on="0"/>
        <pt x="316" y="556" on="0"/>
        <pt x="182" y="556" on="1"/>
        <pt x="70" y="556" on="1"/>
        <pt x="70" y="561" on="1"/>
        <pt x="182" y="561" on="1"/>
        <pt x="320" y="561" on="0"/>
        <pt x="448" y="416" on="0"/>
        <pt x="448" y="280" on="1"/>
        <pt x="448" y="196" on="0"/>
        <pt x="400" y="70" on="0"/>
        <pt x="301" y="0" on="0"/>
        <pt x="224" y="0" on="1"/>
      </contour>
    </TTGlyph>
    <TTGlyph name="uni05DC" xMin="80" yMin="1" xMax="477" yMax="730">
      <contour>
        <pt x="205" y="1" on="1"/>
        <pt x="203" y="6" on="1"/>
        <pt x="284" y="39" on="0"/>
        <pt x="405" y="150" on="0"/>
        <pt x="472" y="279" on="0"/>
        <pt x="472" y="338" on="1"/>
        <pt x="472" y="417" on="0"/>
        <pt x="414" y="511" on="0"/>
        <pt x="306" y="554" on="0"/>
        <pt x="231" y="556" on="1"/>
        <pt x="80" y="551" on="1"/>
        <pt x="80" y="730" on="1"/>
        <pt x="85" y="730" on="1"/>
        <pt x="85" y="556" on="1"/>
        <pt x="231" y="561" on="1"/>
        <pt x="349" y="557" on="0"/>
        <pt x="477" y="457" on="0"/>
        <pt x="477" y="338" on="1"/>
        <pt x="477" y="276" on="0"/>
        <pt x="408" y="145" on="0"/>
        <pt x="286" y="35" on="0"/>
      </contour>
    </TTGlyph>
    <TTGlyph name="uni05DD" xMin="96" yMin="0" xMax="539" yMax="555">
      <contour>
        <pt x="96" y="0" on="1"/>
        <pt x="96" y="555" on="1"/>
        <pt x="337" y="555" on="1"/>
        <pt x="443" y="555" on="0"/>
        <pt x="539" y="457" on="0"/>
        <pt x="539" y="356" on="1"/>
        <pt x="539" y="0" on="1"/>
      </contour>
      <contour>
        <pt x="101" y="5" on="1"/>
        <pt x="534" y="5" on="1"/>
        <pt x="534" y="356" on="1"/>
        <pt x="534" y="457" on="0"/>
        <pt x="439" y="550" on="0"/>
        <pt x="337" y="550" on="1"/>
        <pt x="101" y="550" on="1"/>
      </contour>
    </TTGlyph>
    <TTGlyph name="uni05DE" xMin="72" yMin="-1" xMax="604" yMax="572">
      <contour>
        <pt x="389" y="0" on="1"/>
        <pt x="357" y="0" on="0"/>
        <pt x="337" y="3" on="1"/>
        <pt x="337" y="8" on="1"/>
        <pt x="357" y="5" on="0"/>
        <pt x="389" y="5" on="1"/>
        <pt x="461" y="6" on="0"/>
        <pt x="554" y="81" on="0"/>
        <pt x="599" y="211" on="0"/>
        <pt x="599" y="291" on="1"/>
        <pt x="599" y="431" on="0"/>
        <pt x="500" y="567" on="0"/>
        <pt x="396" y="567" on="1"/>
        <pt x="335" y="567" on="0"/>
        <pt x="246" y="497" on="0"/>
        <pt x="182" y="382" on="0"/>
        <pt x="140" y="246" on="0"/>
        <pt x="116" y="113" on="0"/>
        <pt x="110" y="61" on="1"/>
        <pt x="103" y="-1" on="1"/>
        <pt x="98" y="-1" on="1"/>
        <pt x="105" y="62" on="1"/>
        <pt x="111" y="113" on="0"/>
        <pt x="134" y="241" on="0"/>
        <pt x="173" y="373" on="0"/>
        <pt x="202" y="429" on="1"/>
        <pt x="180" y="461" on="0"/>
        <pt x="107" y="531" on="0"/>
        <pt x="72" y="556" on="1"/>
        <pt x="74" y="560" on="1"/>
        <pt x="110" y="535" on="0"/>
        <pt x="184" y="464" on="0"/>
        <pt x="205" y="434" on="1"/>
        <pt x="238" y="494" on="0"/>
        <pt x="332" y="572" on="0"/>
        <pt x="396" y="572" on="1"/>
        <pt x="505" y="572" on="0"/>
        <pt x="604" y="431" on="0"/>
        <pt x="604" y="291" on="1"/>
        <pt x="604" y="208" on="0"/>
        <pt x="558" y="77" on="0"/>
        <pt x="463" y="1" on="0"/>
      </contour>
    </TTGlyph>
    <TTGlyph name="uni05DF" xMin="80" yMin="-122" xMax="184" yMax="561">
      <contour>
        <pt x="179" y="-122" on="1"/>
        <pt x="179" y="375" on="1"/>
        <pt x="179" y="445" on="0"/>
        <pt x="135" y="538" on="0"/>
        <pt x="80" y="556" on="1"/>
        <pt x="82" y="561" on="1"/>
        <pt x="139" y="543" on="0"/>
        <pt x="184" y="443" on="0"/>
        <pt x="184" y="375" on="1"/>
        <pt x="184" y="-122" on="1"/>
      </contour>
    </TTGlyph>
    <TTGlyph name="uni05E0" xMin="82" yMin="0" xMax="283" yMax="561">
      <contour>
        <pt x="82" y="0" on="1"/>
        <pt x="82" y="5" on="1"/>
        <pt x="278" y="5" on="1"/>
        <pt x="278" y="256" on="1"/>
        <pt x="278" y="377" on="0"/>
        <pt x="193" y="537" on="0"/>
        <pt x="101" y="556" on="1"/>
        <pt x="102" y="561" on="1"/>
        <pt x="194" y="543" on="0"/>
        <pt x="283" y="382" on="0"/>
        <pt x="283" y="256" on="1"/>
        <pt x="283" y="0" on="1"/>
      </contour>
    </TTGlyph>
    <TTGlyph name="uni05E1" xMin="72" yMin="-3" xMax="589" yMax="561">
      <contour>
        <pt x="336" y="-3" on="1"/>
        <pt x="279" y="-3" on="0"/>
        <pt x="189" y="55" on="0"/>
        <pt x="126" y="150" on="0"/>
        <pt x="92" y="265" on="0"/>
        <pt x="92" y="322" on="1"/>
        <pt x="92" y="355" on="0"/>
        <pt x="110" y="442" on="0"/>
        <pt x="139" y="526" on="0"/>
        <pt x="157" y="556" on="1"/>
        <pt x="72" y="556" on="1"/>
        <pt x="72" y="561" on="1"/>
        <pt x="360" y="561" on="1"/>
        <pt x="424" y="561" on="0"/>
        <pt x="528" y="502" on="0"/>
        <pt x="589" y="400" on="0"/>
        <pt x="589" y="336" on="1"/>
        <pt x="589" y="240" on="0"/>
        <pt x="528" y="87" on="0"/>
        <pt x="415" y="-3" on="0"/>
      </contour>
      <contour>
        <pt x="97" y="322" on="1"/>
        <pt x="97" y="265" on="0"/>
        <pt x="130" y="151" on="0"/>
        <pt x="193" y="58" on="0"/>
        <pt x="281" y="2" on="0"/>
        <pt x="336" y="2" on="1"/>
        <pt x="414" y="2" on="0"/>
        <pt x="525" y="92" on="0"/>
        <pt x="584" y="243" on="0"/>
        <pt x="584" y="336" on="1"/>
        <pt x="584" y="398" on="0"/>
        <pt x="524" y="498" on="0"/>
        <pt x="422" y="556" on="0"/>
        <pt x="360" y="556" on="1"/>
        <pt x="162" y="556" on="1"/>
        <pt x="144" y="526" on="0"/>
        <pt x="115" y="442" on="0"/>
        <pt x="97" y="356" on="0"/>
      </contour>
    </TTGlyph>
    <TTGlyph name="uni05E2" xMin="71" yMin="-44" xMax="478" yMax="559">
      <contour>
        <pt x="72" y="-44" on="1"/>
        <pt x="71" y="-39" on="1"/>
        <pt x="112" y="-27" on="0"/>
        <pt x="193" y="7" on="0"/>
        <pt x="231" y="28" on="1"/>
        <pt x="202" y="140" on="0"/>
        <pt x="158" y="302" on="0"/>
        <pt x="122" y="420" on="0"/>
        <pt x="90" y="513" on="0"/>
        <pt x="73" y="557" on="1"/>
        <pt x="78" y="559" on="1"/>
        <pt x="96" y="514" on="0"/>
        <pt x="128" y="419" on="0"/>
        <pt x="163" y="301" on="0"/>
        <pt x="207" y="141" on="0"/>
        <pt x="236" y="31" on="1"/>
        <pt x="286" y="60" on="0"/>
        <pt x="372" y="133" on="0"/>
        <pt x="400" y="176" on="1"/>
        <pt x="433" y="226" on="0"/>
        <pt x="464" y="342" on="0"/>
        <pt x="473" y="478" on="0"/>
        <pt x="472" y="558" on="1"/>
        <pt x="477" y="558" on="1"/>
        <pt x="478" y="435" on="0"/>
        <pt x="453" y="250" on="0"/>
        <pt x="404" y="174" on="1"/>
        <pt x="370" y="121" on="0"/>
        <pt x="263" y="36" on="0"/>
        <pt x="137" y="-25" on="0"/>
      </contour>
    </TTGlyph>
    <TTGlyph name="uni05E3" xMin="72" yMin="-122" xMax="470" yMax="564">
      <contour>
        <pt x="465" y="-122" on="1"/>
        <pt x="465" y="313" on="1"/>
        <pt x="465" y="429" on="0"/>
        <pt x="359" y="559" on="0"/>
        <pt x="247" y="559" on="1"/>
        <pt x="196" y="559" on="0"/>
        <pt x="119" y="511" on="0"/>
        <pt x="77" y="430" on="0"/>
        <pt x="77" y="381" on="1"/>
        <pt x="77" y="339" on="0"/>
        <pt x="116" y="267" on="0"/>
        <pt x="180" y="223" on="0"/>
        <pt x="217" y="223" on="1"/>
        <pt x="217" y="218" on="1"/>
        <pt x="177" y="218" on="0"/>
        <pt x="111" y="263" on="0"/>
        <pt x="72" y="338" on="0"/>
        <pt x="72" y="381" on="1"/>
        <pt x="72" y="433" on="0"/>
        <pt x="117" y="515" on="0"/>
        <pt x="196" y="564" on="0"/>
        <pt x="247" y="564" on="1"/>
        <pt x="357" y="564" on="0"/>
        <pt x="470" y="436" on="0"/>
        <pt x="470" y="313" on="1"/>
        <pt x="470" y="-122" on="1"/>
      </contour>
    </TTGlyph>
    <TTGlyph name="uni05E4" xMin="72" yMin="-2" xMax="528" yMax="560">
      <contour>
        <pt x="300" y="-2" on="1"/>
        <pt x="245" y="-2" on="0"/>
        <pt x="159" y="19" on="0"/>
        <pt x="109" y="43" on="1"/>
        <pt x="111" y="47" on="1"/>
        <pt x="135" y="36" on="0"/>
        <pt x="186" y="16" on="0"/>
        <pt x="252" y="3" on="0"/>
        <pt x="300" y="3" on="1"/>
        <pt x="369" y="3" on="0"/>
        <pt x="469" y="77" on="0"/>
        <pt x="523" y="203" on="0"/>
        <pt x="523" y="280" on="1"/>
        <pt x="523" y="406" on="0"/>
        <pt x="404" y="555" on="0"/>
        <pt x="285" y="555" on="1"/>
        <pt x="228" y="555" on="0"/>
        <pt x="133" y="513" on="0"/>
        <pt x="77" y="436" on="0"/>
        <pt x="77" y="381" on="1"/>
        <pt x="77" y="340" on="0"/>
        <pt x="126" y="282" on="0"/>
        <pt x="206" y="252" on="0"/>
        <pt x="252" y="252" on="1"/>
        <pt x="252" y="247" on="1"/>
        <pt x="208" y="247" on="0"/>
        <pt x="125" y="277" on="0"/>
        <pt x="72" y="337" on="0"/>
        <pt x="72" y="381" on="1"/>
        <pt x="72" y="435" on="0"/>
        <pt x="129" y="516" on="0"/>
        <pt x="225" y="560" on="0"/>
        <pt x="285" y="560" on="1"/>
        <pt x="404" y="560" on="0"/>
        <pt x="528" y="409" on="0"/>
        <pt x="528" y="280" on="1"/>
        <pt x="528" y="202" on="0"/>
        <pt x="474" y="74" on="0"/>
        <pt x="372" y="-2" on="0"/>
      </contour>
    </TTGlyph>
    <TTGlyph name="uni05E5" xMin="72" yMin="-122" xMax="374" yMax="562">
      <contour>
        <pt x="173" y="-122" on="1"/>
        <pt x="173" y="154" on="1"/>
        <pt x="173" y="382" on="0"/>
        <pt x="72" y="560" on="1"/>
        <pt x="77" y="562" on="1"/>
        <pt x="166" y="405" on="0"/>
        <pt x="177" y="206" on="1"/>
        <pt x="234" y="225" on="0"/>
        <pt x="320" y="330" on="0"/>
        <pt x="369" y="476" on="0"/>
        <pt x="369" y="556" on="1"/>
        <pt x="374" y="556" on="1"/>
        <pt x="374" y="473" on="0"/>
        <pt x="323" y="326" on="0"/>
        <pt x="234" y="220" on="0"/>
        <pt x="177" y="201" on="1"/>
        <pt x="178" y="178" on="0"/>
        <pt x="178" y="154" on="1"/>
        <pt x="178" y="-122" on="1"/>
      </contour>
    </TTGlyph>
    <TTGlyph name="uni05E6" xMin="68" yMin="0" xMax="485" yMax="561">
      <contour>
        <pt x="100" y="0" on="1"/>
        <pt x="100" y="5" on="1"/>
        <pt x="463" y="5" on="1"/>
        <pt x="462" y="33" on="0"/>
        <pt x="412" y="109" on="0"/>
        <pt x="337" y="193" on="0"/>
        <pt x="299" y="234" on="1"/>
        <pt x="257" y="280" on="0"/>
        <pt x="176" y="374" on="0"/>
        <pt x="101" y="486" on="0"/>
        <pt x="68" y="559" on="1"/>
        <pt x="72" y="561" on="1"/>
        <pt x="105" y="488" on="0"/>
        <pt x="180" y="376" on="0"/>
        <pt x="260" y="283" on="0"/>
        <pt x="302" y="238" on="1"/>
        <pt x="336" y="258" on="0"/>
        <pt x="395" y="332" on="0"/>
        <pt x="443" y="423" on="0"/>
        <pt x="474" y="518" on="0"/>
        <pt x="480" y="561" on="1"/>
        <pt x="485" y="560" on="1"/>
        <pt x="479" y="515" on="0"/>
        <pt x="446" y="417" on="0"/>
        <pt x="398" y="326" on="0"/>
        <pt x="338" y="253" on="0"/>
        <pt x="305" y="234" on="1"/>
        <pt x="344" y="193" on="0"/>
        <pt x="419" y="108" on="0"/>
        <pt x="468" y="32" on="0"/>
        <pt x="468" y="3" on="1"/>
        <pt x="468" y="0" on="1"/>
      </contour>
    </TTGlyph>
    <TTGlyph name="uni05E7" xMin="96" yMin="-122" xMax="515" yMax="555">
      <contour>
        <pt x="295" y="-7" on="1"/>
        <pt x="293" y="-2" on="1"/>
        <pt x="335" y="18" on="0"/>
        <pt x="413" y="83" on="0"/>
        <pt x="474" y="166" on="0"/>
        <pt x="510" y="259" on="0"/>
        <pt x="510" y="305" on="1"/>
        <pt x="510" y="418" on="0"/>
        <pt x="390" y="550" on="0"/>
        <pt x="269" y="550" on="1"/>
        <pt x="96" y="550" on="1"/>
        <pt x="96" y="555" on="1"/>
        <pt x="269" y="555" on="1"/>
        <pt x="394" y="555" on="0"/>
        <pt x="515" y="418" on="0"/>
        <pt x="515" y="305" on="1"/>
        <pt x="515" y="258" on="0"/>
        <pt x="479" y="164" on="0"/>
        <pt x="417" y="79" on="0"/>
        <pt x="338" y="13" on="0"/>
      </contour>
      <contour>
        <pt x="107" y="-122" on="1"/>
        <pt x="107" y="348" on="1"/>
        <pt x="112" y="348" on="1"/>
        <pt x="112" y="-122" on="1"/>
      </contour>
    </TTGlyph>
    <TTGlyph name="uni05E8" xMin="60" yMin="0" xMax="458" yMax="556">
      <contour>
        <pt x="453" y="0" on="1"/>
        <pt x="453" y="370" on="1"/>
        <pt x="453" y="455" on="0"/>
        <pt x="352" y="551" on="0"/>
        <pt x="272" y="551" on="1"/>
        <pt x="60" y="551" on="1"/>
        <pt x="60" y="556" on="1"/>
        <pt x="272" y="556" on="1"/>
        <pt x="359" y="556" on="0"/>
        <pt x="458" y="452" on="0"/>
        <pt x="458" y="370" on="1"/>
        <pt x="458" y="0" on="1"/>
      </contour>
    </TTGlyph>
    <TTGlyph name="uni05E9" xMin="77" yMin="-2" xMax="650" yMax="556">
      <contour>
        <pt x="367" y="-2" on="1"/>
        <pt x="278" y="-2" on="0"/>
        <pt x="147" y="137" on="0"/>
        <pt x="77" y="389" on="0"/>
        <pt x="77" y="556" on="1"/>
        <pt x="82" y="556" on="1"/>
        <pt x="82" y="447" on="0"/>
        <pt x="112" y="264" on="0"/>
        <pt x="140" y="194" on="1"/>
        <pt x="188" y="207" on="0"/>
        <pt x="273" y="276" on="0"/>
        <pt x="303" y="321" on="1"/>
        <pt x="374" y="426" on="0"/>
        <pt x="374" y="556" on="1"/>
        <pt x="379" y="556" on="1"/>
        <pt x="379" y="424" on="0"/>
        <pt x="307" y="318" on="1"/>
        <pt x="276" y="272" on="0"/>
        <pt x="188" y="201" on="0"/>
        <pt x="142" y="189" on="1"/>
        <pt x="179" y="100" on="0"/>
        <pt x="294" y="3" on="0"/>
        <pt x="367" y="3" on="1"/>
        <pt x="492" y="3" on="0"/>
        <pt x="633" y="291" on="0"/>
        <pt x="645" y="556" on="1"/>
        <pt x="650" y="556" on="1"/>
        <pt x="638" y="286" on="0"/>
        <pt x="492" y="-2" on="0"/>
      </contour>
    </TTGlyph>
    <TTGlyph name="uni05E9.forDagesh" xMin="70" yMin="-2" xMax="643" yMax="556">
      <contour>
        <pt x="360" y="-2" on="1"/>
        <pt x="271" y="-2" on="0"/>
        <pt x="140" y="137" on="0"/>
        <pt x="70" y="389" on="0"/>
        <pt x="70" y="556" on="1"/>
        <pt x="75" y="556" on="1"/>
        <pt x="75" y="447" on="0"/>
        <pt x="105" y="264" on="0"/>
        <pt x="133" y="194" on="1"/>
        <pt x="181" y="207" on="0"/>
        <pt x="266" y="276" on="0"/>
        <pt x="296" y="321" on="1"/>
        <pt x="367" y="426" on="0"/>
        <pt x="367" y="556" on="1"/>
        <pt x="372" y="556" on="1"/>
        <pt x="372" y="424" on="0"/>
        <pt x="300" y="318" on="1"/>
        <pt x="269" y="272" on="0"/>
        <pt x="181" y="201" on="0"/>
        <pt x="135" y="189" on="1"/>
        <pt x="172" y="100" on="0"/>
        <pt x="287" y="3" on="0"/>
        <pt x="360" y="3" on="1"/>
        <pt x="485" y="3" on="0"/>
        <pt x="626" y="291" on="0"/>
        <pt x="638" y="556" on="1"/>
        <pt x="643" y="556" on="1"/>
        <pt x="631" y="286" on="0"/>
        <pt x="485" y="-2" on="0"/>
      </contour>
    </TTGlyph>
    <TTGlyph name="uni05EA" xMin="71" yMin="0" xMax="562" yMax="561">
      <contour>
        <pt x="71" y="3" on="1"/>
        <pt x="71" y="8" on="1"/>
        <pt x="173" y="8" on="1"/>
        <pt x="153" y="144" on="0"/>
        <pt x="159" y="295" on="1"/>
        <pt x="167" y="437" on="0"/>
        <pt x="193" y="556" on="1"/>
        <pt x="91" y="556" on="1"/>
        <pt x="91" y="561" on="1"/>
        <pt x="361" y="561" on="1"/>
        <pt x="435" y="561" on="0"/>
        <pt x="523" y="494" on="0"/>
        <pt x="562" y="375" on="0"/>
        <pt x="562" y="298" on="1"/>
        <pt x="562" y="0" on="1"/>
        <pt x="557" y="0" on="1"/>
        <pt x="557" y="298" on="1"/>
        <pt x="557" y="375" on="0"/>
        <pt x="518" y="491" on="0"/>
        <pt x="432" y="556" on="0"/>
        <pt x="361" y="556" on="1"/>
        <pt x="199" y="556" on="1"/>
        <pt x="172" y="435" on="0"/>
        <pt x="164" y="294" on="1"/>
        <pt x="158" y="140" on="0"/>
        <pt x="179" y="3" on="1"/>
      </contour>
    </TTGlyph>
    <TTGlyph name="uni05F3" xMin="82" yMin="365" xMax="159" yMax="600">
      <contour>
        <pt x="82" y="365" on="1"/>
        <pt x="154" y="600" on="1"/>
        <pt x="159" y="600" on="1"/>
        <pt x="87" y="365" on="1"/>
      </contour>
    </TTGlyph>
    <TTGlyph name="uni05F4" xMin="82" yMin="365" xMax="294" yMax="600">
      <contour>
        <pt x="217" y="365" on="1"/>
        <pt x="289" y="600" on="1"/>
        <pt x="294" y="600" on="1"/>
        <pt x="222" y="365" on="1"/>
      </contour>
      <contour>
        <pt x="82" y="365" on="1"/>
        <pt x="154" y="600" on="1"/>
        <pt x="159" y="600" on="1"/>
        <pt x="87" y="365" on="1"/>
      </contour>
    </TTGlyph>
    <TTGlyph name="uni20AA" xMin="112" yMin="0" xMax="634" yMax="556">
      <contour>
        <pt x="265" y="0" on="1"/>
        <pt x="265" y="403" on="1"/>
        <pt x="270" y="403" on="1"/>
        <pt x="270" y="6" on="1"/>
        <pt x="417" y="6" on="1"/>
        <pt x="629" y="6" on="0"/>
        <pt x="629" y="258" on="1"/>
        <pt x="629" y="556" on="1"/>
        <pt x="634" y="556" on="1"/>
        <pt x="634" y="258" on="1"/>
        <pt x="634" y="0" on="0"/>
        <pt x="417" y="0" on="1"/>
      </contour>
      <contour>
        <pt x="112" y="0" on="1"/>
        <pt x="112" y="556" on="1"/>
        <pt x="247" y="556" on="1"/>
        <pt x="456" y="556" on="0"/>
        <pt x="456" y="298" on="1"/>
        <pt x="456" y="160" on="1"/>
        <pt x="451" y="160" on="1"/>
        <pt x="451" y="298" on="1"/>
        <pt x="451" y="551" on="0"/>
        <pt x="247" y="551" on="1"/>
        <pt x="117" y="551" on="1"/>
        <pt x="117" y="0" on="1"/>
      </contour>
    </TTGlyph>
    <TTGlyph name="uni2196" xMin="96" yMin="155" xMax="497" yMax="556">
      <contour>
        <pt x="98" y="251" on="1"/>
        <pt x="96" y="556" on="1"/>
        <pt x="401" y="554" on="1"/>
        <pt x="401" y="549" on="1"/>
        <pt x="103" y="552" on="1"/>
        <pt x="497" y="158" on="1"/>
        <pt x="494" y="155" on="1"/>
        <pt x="101" y="547" on="1"/>
        <pt x="103" y="251" on="1"/>
      </contour>
    </TTGlyph>
    <TTGlyph name="uni2197" xMin="76" yMin="155" xMax="477" yMax="556">
      <contour>
        <pt x="79" y="155" on="1"/>
        <pt x="76" y="158" on="1"/>
        <pt x="470" y="552" on="1"/>
        <pt x="172" y="549" on="1"/>
        <pt x="172" y="554" on="1"/>
        <pt x="477" y="556" on="1"/>
        <pt x="475" y="251" on="1"/>
        <pt x="470" y="251" on="1"/>
        <pt x="472" y="547" on="1"/>
      </contour>
    </TTGlyph>
    <TTGlyph name="uni2198" xMin="76" yMin="0" xMax="477" yMax="401">
      <contour>
        <pt x="172" y="2" on="1"/>
        <pt x="172" y="7" on="1"/>
        <pt x="470" y="4" on="1"/>
        <pt x="76" y="398" on="1"/>
        <pt x="79" y="401" on="1"/>
        <pt x="472" y="9" on="1"/>
        <pt x="470" y="305" on="1"/>
        <pt x="475" y="305" on="1"/>
        <pt x="477" y="0" on="1"/>
      </contour>
    </TTGlyph>
    <TTGlyph name="uni2199" xMin="96" yMin="0" xMax="497" yMax="401">
      <contour>
        <pt x="96" y="0" on="1"/>
        <pt x="98" y="305" on="1"/>
        <pt x="103" y="305" on="1"/>
        <pt x="101" y="9" on="1"/>
        <pt x="494" y="401" on="1"/>
        <pt x="497" y="398" on="1"/>
        <pt x="103" y="4" on="1"/>
        <pt x="401" y="7" on="1"/>
        <pt x="401" y="2" on="1"/>
      </contour>
    </TTGlyph>
    <TTGlyph name="uniFB2A" xMin="77" yMin="-2" xMax="650" yMax="684">
      <component glyphName="uni05E9" x="0" y="0" flags="0x204"/>
      <component glyphName="uni05C1" x="699" y="0" flags="0x4"/>
    </TTGlyph>
    <TTGlyph name="uniFB2B" xMin="77" yMin="-2" xMax="650" yMax="684">
      <component glyphName="uni05E9" x="0" y="0" flags="0x204"/>
      <component glyphName="uni05C2" x="5" y="0" flags="0x4"/>
    </TTGlyph>
    <TTGlyph name="uniFB2C" xMin="70" yMin="-2" xMax="643" yMax="684">
      <component glyphName="uni05E9.forDagesh" x="0" y="0" flags="0x204"/>
      <component glyphName="uni05BC" x="383" y="64" flags="0x4"/>
      <component glyphName="uni05C1" x="692" y="0" flags="0x4"/>
    </TTGlyph>
    <TTGlyph name="uniFB2D" xMin="70" yMin="-2" xMax="643" yMax="684">
      <component glyphName="uni05E9.forDagesh" x="0" y="0" flags="0x204"/>
      <component glyphName="uni05BC" x="383" y="64" flags="0x4"/>
      <component glyphName="uni05C2" x="-2" y="0" flags="0x4"/>
    </TTGlyph>
    <TTGlyph name="uniFB2E" xMin="85" yMin="-104" xMax="608" yMax="561">
      <component glyphName="uni05D0" x="0" y="0" flags="0x204"/>
      <component glyphName="uni05B7" x="361" y="0" flags="0x4"/>
    </TTGlyph>
    <TTGlyph name="uniFB2F" xMin="85" yMin="-246" xMax="608" yMax="561">
      <component glyphName="uni05D0" x="0" y="0" flags="0x204"/>
      <component glyphName="uni05B8" x="361" y="0" flags="0x4"/>
    </TTGlyph>
    <TTGlyph name="uniFB30" xMin="85" yMin="-1" xMax="608" yMax="561">
      <component glyphName="uni05D0.forDagesh" x="0" y="0" flags="0x204"/>
      <component glyphName="uni05BC" x="241" y="-64" flags="0x4"/>
    </TTGlyph>
    <TTGlyph name="uniFB31" xMin="77" yMin="0" xMax="524" yMax="561">
      <component glyphName="uni05D1" x="0" y="0" flags="0x204"/>
      <component glyphName="uni05BC" x="201" y="64" flags="0x4"/>
    </TTGlyph>
    <TTGlyph name="uniFB32" xMin="62" yMin="0" xMax="255" yMax="561">
      <component glyphName="uni05D2" x="0" y="0" flags="0x204"/>
      <component glyphName="uni05BC" x="83" y="64" flags="0x4"/>
    </TTGlyph>
    <TTGlyph name="uniFB33" xMin="45" yMin="4" xMax="467" yMax="560">
      <component glyphName="uni05D3" x="0" y="0" flags="0x204"/>
      <component glyphName="uni05BC" x="164" y="64" flags="0x4"/>
    </TTGlyph>
    <TTGlyph name="uniFB34" xMin="96" yMin="0" xMax="524" yMax="557">
      <component glyphName="uni05D4" x="0" y="0" flags="0x204"/>
      <component glyphName="uni05BC" x="260" y="64" flags="0x4"/>
    </TTGlyph>
    <TTGlyph name="uniFB35" xMin="80" yMin="-1" xMax="196" yMax="563">
      <component glyphName="uni05D5" x="0" y="0" flags="0x204"/>
      <component glyphName="uni05BC" x="65" y="64" flags="0x4"/>
    </TTGlyph>
    <TTGlyph name="uniFB36" xMin="69" yMin="0" xMax="260" yMax="560">
      <component glyphName="uni05D6" x="0" y="0" flags="0x204"/>
      <component glyphName="uni05BC" x="33" y="64" flags="0x4"/>
    </TTGlyph>
    <TTGlyph name="uniFB38" xMin="96" yMin="-11" xMax="584" yMax="559">
      <component glyphName="uni05D8" x="0" y="0" flags="0x204"/>
      <component glyphName="uni05BC" x="283" y="64" flags="0x4"/>
    </TTGlyph>
    <TTGlyph name="uniFB39" xMin="74" yMin="240" xMax="267" yMax="565">
      <component glyphName="uni05D9" x="0" y="0" flags="0x204"/>
      <component glyphName="uni05BC" x="81" y="127" flags="0x4"/>
    </TTGlyph>
    <TTGlyph name="uniFB3A" xMin="93" yMin="-122" xMax="473" yMax="558">
      <component glyphName="uni05DA" x="0" y="0" flags="0x204"/>
      <component glyphName="uni05BC" x="190" y="182" flags="0x4"/>
    </TTGlyph>
    <TTGlyph name="uniFB3B" xMin="70" yMin="0" xMax="448" yMax="561">
      <component glyphName="uni05DB" x="0" y="0" flags="0x204"/>
      <component glyphName="uni05BC" x="154" y="64" flags="0x4"/>
    </TTGlyph>
    <TTGlyph name="uniFB3C" xMin="80" yMin="1" xMax="477" yMax="730">
      <component glyphName="uni05DC" x="0" y="0" flags="0x204"/>
      <component glyphName="uni05BC" x="202" y="64" flags="0x4"/>
    </TTGlyph>
    <TTGlyph name="uniFB3E" xMin="72" yMin="-1" xMax="604" yMax="572">
      <component glyphName="uni05DE" x="0" y="0" flags="0x204"/>
      <component glyphName="uni05BC" x="320" y="64" flags="0x4"/>
    </TTGlyph>
    <TTGlyph name="uniFB40" xMin="82" yMin="0" xMax="283" yMax="561">
      <component glyphName="uni05E0" x="0" y="0" flags="0x204"/>
      <component glyphName="uni05BC" x="102" y="64" flags="0x4"/>
    </TTGlyph>
    <TTGlyph name="uniFB41" xMin="72" yMin="-3" xMax="589" yMax="561">
      <component glyphName="uni05E1" x="0" y="0" flags="0x204"/>
      <component glyphName="uni05BC" x="293" y="84" flags="0x4"/>
    </TTGlyph>
    <TTGlyph name="uniFB43" xMin="72" yMin="-122" xMax="470" yMax="564">
      <component glyphName="uni05E3" x="0" y="0" flags="0x204"/>
      <component glyphName="uni05BC" x="271" y="64" flags="0x4"/>
    </TTGlyph>
    <TTGlyph name="uniFB44" xMin="72" yMin="-2" xMax="528" yMax="560">
      <component glyphName="uni05E4" x="0" y="0" flags="0x204"/>
      <component glyphName="uni05BC" x="332" y="64" flags="0x4"/>
    </TTGlyph>
    <TTGlyph name="uniFB46" xMin="68" yMin="0" xMax="485" yMax="561">
      <component glyphName="uni05E6" x="0" y="0" flags="0x204"/>
      <component glyphName="uni05BC" x="79" y="64" flags="0x4"/>
    </TTGlyph>
    <TTGlyph name="uniFB47" xMin="96" yMin="-122" xMax="515" yMax="555">
      <component glyphName="uni05E7" x="0" y="0" flags="0x204"/>
      <component glyphName="uni05BC" x="263" y="84" flags="0x4"/>
    </TTGlyph>
    <TTGlyph name="uniFB48" xMin="60" yMin="0" xMax="458" yMax="556">
      <component glyphName="uni05E8" x="0" y="0" flags="0x204"/>
      <component glyphName="uni05BC" x="197" y="64" flags="0x4"/>
    </TTGlyph>
    <TTGlyph name="uniFB49" xMin="70" yMin="-2" xMax="643" yMax="556">
      <component glyphName="uni05E9.forDagesh" x="0" y="0" flags="0x204"/>
      <component glyphName="uni05BC" x="383" y="64" flags="0x4"/>
    </TTGlyph>
    <TTGlyph name="uniFB4A" xMin="71" yMin="0" xMax="562" yMax="561">
      <component glyphName="uni05EA" x="0" y="0" flags="0x204"/>
      <component glyphName="uni05BC" x="319" y="64" flags="0x4"/>
    </TTGlyph>
    <TTGlyph name="uniFB4B" xMin="80" yMin="-1" xMax="196" yMax="684">
      <component glyphName="uni05D5" x="0" y="0" flags="0x204"/>
      <component glyphName="uni05B9" x="164" y="0" flags="0x4"/>
    </TTGlyph>
    <TTGlyph name="zero" xMin="56" yMin="0" xMax="484" yMax="603">
      <contour>
        <pt x="270" y="0" on="1"/>
        <pt x="208" y="0" on="0"/>
        <pt x="111" y="78" on="0"/>
        <pt x="56" y="215" on="0"/>
        <pt x="56" y="303" on="1"/>
        <pt x="56" y="391" on="0"/>
        <pt x="111" y="526" on="0"/>
        <pt x="208" y="603" on="0"/>
        <pt x="270" y="603" on="1"/>
        <pt x="333" y="603" on="0"/>
        <pt x="429" y="526" on="0"/>
        <pt x="484" y="391" on="0"/>
        <pt x="484" y="303" on="1"/>
        <pt x="484" y="215" on="0"/>
        <pt x="429" y="78" on="0"/>
        <pt x="333" y="0" on="0"/>
      </contour>
      <contour>
        <pt x="270" y="5" on="1"/>
        <pt x="331" y="5" on="0"/>
        <pt x="425" y="81" on="0"/>
        <pt x="479" y="216" on="0"/>
        <pt x="479" y="303" on="1"/>
        <pt x="479" y="390" on="0"/>
        <pt x="425" y="523" on="0"/>
        <pt x="331" y="598" on="0"/>
        <pt x="270" y="598" on="1"/>
        <pt x="209" y="598" on="0"/>
        <pt x="115" y="523" on="0"/>
        <pt x="61" y="390" on="0"/>
        <pt x="61" y="303" on="1"/>
        <pt x="61" y="216" on="0"/>
        <pt x="115" y="81" on="0"/>
        <pt x="209" y="5" on="0"/>
      </contour>
    </TTGlyph>
</ttFont>
